<?xml version="1.0" encoding="utf-8" ?>
<svg xmlns="http://www.w3.org/2000/svg" xmlns:xlink="http://www.w3.org/1999/xlink" width="1024" height="1024">
	<path fill="#797D6200" d="M0 0L1024 0L1024 1024L912.191 1024L904.701 1024L900.23 1024L863.088 1024L849.631 1024L843.387 1024L843.025 1024L730.392 1024L658.298 1024L616.096 1024L585.496 1024L578.382 1024L552.273 1024L489.962 1024L463.356 1024L443.166 1024L435.39 1024L408.518 1024L295.132 1024L186.307 1024L179.548 1024L158.331 1024L124.908 1024L118.349 1024L110.542 1024L0 1024L0 0Z"/>
	<path fill="#202020" d="M514.009 43.8288Q515.179 44.2906 516.338 44.7811Q517.496 45.2716 518.642 45.7905Q519.788 46.3093 520.921 46.8562Q522.054 47.4032 523.174 47.9778Q524.293 48.5525 525.397 49.1545Q526.502 49.7566 527.592 50.3856Q528.681 51.0147 529.755 51.6703Q530.828 52.326 531.886 53.008Q532.943 53.6899 533.983 54.3976Q535.023 55.1054 536.046 55.8385Q537.068 56.5717 538.072 57.3298Q539.076 58.0879 540.061 58.8705Q541.046 59.653 542.012 60.4596Q542.977 61.2663 543.922 62.0964Q544.868 62.9265 545.792 63.7797Q546.717 64.6328 547.62 65.5085Q548.524 66.3841 549.405 67.2818Q550.286 68.1794 551.146 69.0985Q552.005 70.0176 552.841 70.9575Q553.677 71.8974 554.49 72.8577Q555.303 73.8179 556.092 74.7979Q556.881 75.7779 557.645 76.777Q558.41 77.7761 559.15 78.7937Q559.889 79.8113 560.604 80.8468Q561.318 81.8824 562.007 82.9352Q562.696 83.988 563.358 85.0574Q564.021 86.1269 564.657 87.2123Q565.293 88.2977 565.902 89.3985Q566.511 90.4992 567.093 91.6147Q567.675 92.7301 568.229 93.8595Q568.784 94.9889 569.31 96.1317Q569.836 97.2744 570.334 98.4297C572.695 103.948 574.606 109.973 575.507 115.917C590.204 119.051 604.526 123.224 619.114 126.738C625.754 124.896 632.224 121.916 635.88 115.712C638.452 111.348 638.703 106.265 637.417 101.441C635.936 95.885 632.753 91.4969 628.731 87.501C639.469 93.5065 649.401 101.192 652.916 113.555C654.881 120.468 654.274 126.58 650.724 132.9C649.227 135.564 647.25 137.887 645.165 140.109L645.371 140.683C646.773 141.037 648.172 141.395 649.587 141.699L650.184 141.802C671.014 145.592 682.772 169.776 705.221 168.452C709.776 168.183 714.411 166.729 718.149 164.096C722.537 161.006 725.327 156.46 726.157 151.161C727.337 143.634 724.388 134.988 719.854 128.964C716.01 123.857 710.705 119.766 705.556 116.063Q706.969 116.657 708.35 117.319Q709.732 117.981 711.081 118.708Q712.429 119.436 713.741 120.229Q715.052 121.021 716.324 121.876Q717.596 122.731 718.824 123.646Q720.053 124.561 721.236 125.535Q722.419 126.509 723.554 127.539Q724.688 128.569 725.771 129.653Q726.855 130.736 727.884 131.871Q728.914 133.006 729.887 134.189Q730.861 135.373 731.776 136.602Q732.691 137.831 733.545 139.103Q734.399 140.375 735.191 141.687Q735.983 142.999 736.71 144.347Q737.438 145.696 738.099 147.078Q738.76 148.46 739.354 149.873C744.237 161.715 746.568 178.48 743.361 191.093C743.338 191.183 743.286 191.264 743.248 191.349C741.638 200.572 737.695 208.547 733.56 216.854C748.549 213.569 762.935 216.375 775.839 224.745C783.264 229.561 789.328 235.941 791.234 244.864C793.521 255.566 777.841 270.942 786.237 277.009C789.669 279.488 795.064 279.658 799.068 278.898C807.858 277.231 815.432 271.739 820.228 264.279C821.464 262.357 822.478 260.251 823.357 258.146C827.019 269.925 828.898 280.558 822.895 292.03C817.899 301.579 808.868 306.826 798.894 310.022C808.315 314.465 815.022 321.192 818.526 331.158C821.345 339.176 821.149 349.152 817.388 356.818C815.901 359.849 813.601 362.839 812.627 366.048C814.557 369.096 818.774 370.149 822.115 370.884C830.3 372.686 838.593 371.47 845.619 366.75C853.322 361.575 859.818 351.324 861.511 342.249C861.782 340.796 861.95 339.314 862.127 337.847C862.617 343.316 863.441 348.874 863.386 354.368C863.206 372.362 856.471 391.145 844.876 404.92C833.128 418.878 818.618 426.011 800.656 428.168C802.202 434.228 804.58 439.177 810.233 442.462C816.303 445.989 823.911 445.949 830.495 444.003C839.804 441.253 846.352 435.099 850.886 426.669Q852.389 423.851 853.831 421.002C848.17 444.66 837.819 467.416 816.166 480.613C809.928 484.414 802.977 486.192 795.7 486.458C794.34 486.507 787.195 486.213 786.884 487.163C789.334 494.399 798.182 496.63 793.691 505.745C790.338 512.549 777.143 522.672 770.737 527.345C775.52 546.474 774.83 563.616 764.57 580.773C756.009 595.09 744.49 606.552 730.577 615.639C726.194 626.938 720.756 639.637 709.017 645.049C701.134 648.684 692.125 647.483 684.275 644.411Q682.354 643.639 680.479 642.762C672.743 673.902 659.168 694.132 635.834 715.375C630.596 720.145 625.032 724.552 619.791 729.301C626.344 733.533 633.323 737.049 640.019 741.045C653.204 748.913 666.056 758.782 676.351 770.17C682.326 776.78 687.171 788.809 692.341 793.439C705.699 805.399 725.606 814.217 733.316 831.389C732.357 836.291 731.168 840.895 729.352 845.55L729.959 845.921C741.783 853.07 755.024 858.434 767.285 864.892Q809.124 886.603 849.221 911.384C856.297 915.78 866.782 921.011 872.393 927.111C874.868 929.802 876.057 933.82 877.933 936.954C880.855 941.836 884.125 946.476 886.94 951.434Q890.43 957.705 893.511 964.186Q896.593 970.668 899.254 977.332Q901.916 983.997 904.146 990.819Q906.375 997.64 908.165 1004.59Q910.539 1014.22 912.191 1024L904.701 1024L900.23 1024L863.088 1024L849.631 1024L843.387 1024L843.025 1024L730.392 1024L658.298 1024L616.096 1024L585.496 1024L578.382 1024L552.273 1024L489.962 1024L463.356 1024L443.166 1024L435.39 1024L408.518 1024L295.132 1024L186.307 1024L179.548 1024L158.331 1024L124.908 1024L118.349 1024L110.542 1024C111.974 1018.41 113.102 1012.75 114.69 1007.2Q117.204 998.23 120.355 989.464Q123.506 980.698 127.278 972.18Q131.05 963.663 135.423 955.438Q139.795 947.212 144.747 939.322C147.257 935.303 149.447 930.316 152.496 926.74C156.546 921.99 163.728 918.302 168.977 914.874C182.065 906.328 195.605 898.768 209.203 891.076Q228.638 879.933 248.339 869.267C263.695 861.066 279.281 853.588 293.973 844.205C293.863 837.112 292.004 828.811 293.959 821.931C294.4 820.379 295.035 819.603 296.299 818.666C299.48 816.309 303.457 814.807 306.968 812.963C316.036 808.2 325.185 803.542 334.185 798.655C334.263 797.968 334.347 797.284 334.479 796.606C335.63 790.673 341.432 784.779 345.086 780.151C365.579 754.195 376.642 744.718 404.184 726.694C399.386 722.752 394.307 719.21 389.615 715.116C375.498 702.796 362.51 687.393 354.399 670.457C349.646 660.531 346.161 649.848 342.386 639.515C337.077 644.37 330.271 648.788 322.775 648.484C314.493 648.149 306.925 640.81 301.535 635.143C280.679 613.215 254.803 588.554 249.184 557.599C248.193 552.136 248.194 546.775 248.338 541.243C243.334 539.984 238.579 538.368 233.995 535.972C222.656 530.046 210.846 520.484 206.924 507.938C211.757 513.12 214.703 516.162 221.497 518.806C226.631 520.436 232.027 521.094 237.02 518.612C243.587 515.346 246.432 508.803 248.539 502.214C245.54 503.471 242.625 504.637 239.366 504.976C237.586 505.031 235.759 505.066 233.986 504.859Q233.241 504.775 232.501 504.655Q231.761 504.534 231.028 504.377Q230.295 504.221 229.57 504.028Q228.845 503.836 228.131 503.608Q227.417 503.38 226.714 503.118Q226.012 502.855 225.324 502.558Q224.635 502.261 223.962 501.931Q223.289 501.601 222.633 501.238Q221.977 500.875 221.339 500.481Q220.702 500.086 220.084 499.661Q219.467 499.235 218.871 498.78Q218.276 498.325 217.703 497.841Q217.13 497.357 216.582 496.845Q216.034 496.334 215.511 495.796Q214.989 495.258 214.494 494.695Q213.998 494.132 213.531 493.546C205.98 483.942 204.718 472.67 206.055 460.9C198.051 460.066 190.872 458.067 183.801 454.156C171.182 447.175 160.598 434.157 156.73 420.189C155.752 416.658 152.436 401.809 154.004 398.997L154.907 400.471C154.882 405.401 158.047 412.9 160.932 416.875C162.059 417.842 163.28 418.694 164.532 419.492C174.077 425.574 186.954 426.916 197.822 424.341C212.615 420.837 221.322 410.089 224.454 395.564C225.912 388.798 226.399 381.832 228.403 375.181C231.383 365.293 236.736 356.61 242.154 347.919Q240.014 349.547 237.819 351.099C232.875 355.636 228.051 360.114 224.84 366.106C220.1 374.95 218.606 384.907 215.304 394.264C210.26 408.559 199.923 418.692 183.894 418.096Q183.021 418.065 182.151 417.991Q181.28 417.917 180.415 417.8Q179.549 417.682 178.69 417.522Q177.832 417.361 176.982 417.158Q176.132 416.955 175.294 416.71Q174.455 416.465 173.63 416.179Q172.805 415.892 171.995 415.565Q171.185 415.238 170.392 414.87Q169.6 414.503 168.826 414.097Q168.053 413.691 167.301 413.246Q166.549 412.802 165.82 412.321Q165.091 411.84 164.386 411.323Q163.682 410.806 163.005 410.255Q162.327 409.703 161.678 409.119Q161.029 408.534 160.409 407.918Q159.79 407.302 159.202 406.656C157.91 405.246 156.816 404.017 156.213 402.169C158.367 404.369 160.579 406.299 163.236 407.864C171.338 412.64 182.15 414.495 191.297 412.017C200.732 409.461 206.705 402.785 211.352 394.605C206.975 392.309 202.886 389.694 199.205 386.378C182.588 371.409 174.437 347.504 173.404 325.609C172.681 310.29 176.696 295.63 187.136 284.127C186.225 286.855 185.366 289.574 184.088 292.158C181.745 297.439 180.686 302.606 179.894 308.31C180.065 321.616 182.524 336.816 191.146 347.495C187.928 339.567 186.626 331.705 184.671 323.429C185.879 325.488 187.07 327.598 188.432 329.559C193.129 336.321 200.842 341.283 208.983 342.583C217.899 344.008 225.471 340.897 232.494 335.786C229.165 336.135 225.81 336.464 222.465 336.592C210.712 337.042 201.02 333.354 192.457 325.318C191.028 323.873 189.785 322.42 188.732 320.673C183.998 312.818 182.344 300.968 184.665 292.138L185.163 291.968C185.273 300.517 186.189 312.111 192.536 318.592C196.098 322.229 200.766 323.33 205.718 323.256C215.291 323.111 223.424 318.813 231.839 314.822L232.765 313.917L232.628 313.077C226.797 312.737 220.835 311.402 216.008 307.95C208.565 302.626 205.622 292.85 204.38 284.19C201.777 266.044 206.741 244.127 217.721 229.347C215.76 233.841 214.556 238.612 215.369 243.525C216.27 248.974 219.118 254.848 223.716 258.057C235.041 265.96 253.796 258.846 266.071 256.62C257.674 253.238 250.982 247.317 246.742 239.308C241.018 228.498 240.364 216.297 244.091 204.72C249.025 189.391 260.945 177.806 274.99 170.493C270.087 176.068 263.649 181.971 261.398 189.241C259.528 195.279 260.989 201.469 263.963 206.88C272.812 222.974 289.923 228.248 306.399 233.166L307.605 232.83C304.814 231.204 302.908 229.719 301.304 226.86C300.9 226.211 300.531 225.584 300.187 224.902C293.832 212.288 294.036 195.881 298.327 182.683C308.053 152.764 335.3 149.204 359.867 136.5C371.652 130.406 386.634 121.838 390.666 108.166C393.177 99.6515 389.688 92.3609 385.853 84.9834L386.145 85.2768L386.625 85.7724C388.93 88.1213 390.768 90.4827 392.283 93.4129C399.288 106.96 394.364 120.949 390.102 134.464C397.69 129.554 405.662 125.66 414.099 122.432C428.036 117.099 442.283 113.504 454.385 104.318C466.785 94.9071 475.644 80.7506 477.831 65.2413Q478.669 68.5161 479.461 71.802L479.831 73.8295C481.394 86.1179 481.44 96.4067 477.293 108.246C481.432 107.166 485.485 106.307 489.75 105.908C499.368 105.008 511.556 106.057 520.476 102.262C525.269 100.223 529.385 95.727 532.021 91.2956C535.892 84.7883 537.638 77.0063 535.544 69.5893C532.315 58.1459 523.326 50.4291 514.009 43.8288Z"/>
	<path fill="#F2E6AE" d="M412.708 731.714L416.519 736.46C417.43 740.978 417.555 746.128 418.767 750.495C419.072 755.493 419.18 760.509 419.52 765.502L418.545 765.798C418.118 754.141 415.511 742.969 412.708 731.714Z"/>
	<path fill="#585937" d="M725.87 227.374C728.829 227.351 731.924 226.556 734.94 226.409C734.791 226.524 734.644 226.642 734.494 226.755C733.8 227.277 734.075 227.087 733.232 227.525C733.443 227.525 733.654 227.512 733.864 227.524C735.183 227.598 736.301 228.11 737.281 228.977C731.223 230.307 724.714 234.083 718.635 234.325L725.87 227.374Z"/>
	<path fill="#F2E6AE" d="M406.867 729.793L407.092 730.551C395.144 740.162 383.844 750.284 372.693 760.803L372.173 759.874L370.136 759.826C379.395 750.328 395.287 736.195 406.867 729.793Z"/>
	<path fill="#F2E6AE" d="M715.959 259.307C733.403 253.805 749.471 249.85 767.607 255.009C767.489 256.364 767.753 256.938 766.671 257.871C757.881 257.353 746.624 254.304 738.028 257.032C730.465 257.46 723.062 259.695 715.541 260.261L715.721 259.654L715.084 260.27L714.563 259.956L715.959 259.307Z"/>
	<defs>
		<linearGradient id="gradient_0" gradientUnits="userSpaceOnUse" x1="676.79645" y1="401.25568" x2="685.79791" y2="402.90149">
			<stop offset="0" stop-color="#A29F78"/>
			<stop offset="1" stop-color="#C1BA8E"/>
		</linearGradient>
	</defs>
	<path fill="url(#gradient_0)" d="M672.186 431.386C673.677 427.85 676.432 424.423 678.21 420.92C684.339 408.849 683.053 396.358 680.361 383.511C679.412 378.978 676.573 373.699 676.296 369.269C676.28 369.02 676.274 368.77 676.263 368.521C682.711 381.533 689.52 399.669 684.552 414.26C682.207 421.147 677.644 426.686 672.186 431.386Z"/>
	<path fill="#C48451" d="M711.398 526.031C708.663 535.348 704.388 545.673 706.754 555.645C706.587 556.559 706.532 557.648 706.047 558.442C702.188 564.49 700.158 571.628 694.727 576.633C696.355 563.962 698.678 551.241 700.631 538.6C704.045 534.366 707.371 529.69 711.398 526.031Z"/>
	<defs>
		<linearGradient id="gradient_1" gradientUnits="userSpaceOnUse" x1="703.19409" y1="291.80368" x2="705.38977" y2="272.32431">
			<stop offset="0" stop-color="#8D8C5A"/>
			<stop offset="1" stop-color="#BAAE77"/>
		</linearGradient>
	</defs>
	<path fill="url(#gradient_1)" d="M739.962 272.324L740.805 273.288L738.655 278.248C732.426 286.882 722.987 290.311 712.737 291.966C699.593 294.087 686.084 290.736 674.912 283.683C671.365 280.968 668.68 277.917 666.034 274.342C675.892 281.439 686.322 286.64 698.564 287.747C710.651 288.841 724.294 287.057 733.898 279.044C736.335 277.536 738.276 274.611 739.962 272.324Z"/>
	<path fill="#F2E6AE" d="M773.892 304.806C786.721 306.799 799.512 312.166 807.472 322.932C813.052 330.479 814.922 339.557 813.464 348.773Q812.805 352.727 811.319 356.449L811.129 356.395C810.325 355.348 810.63 354.094 810.611 352.792C810.541 347.87 809.953 343.355 808.389 338.674C804.204 326.142 793.774 315.63 782.376 309.292C779.529 307.709 776.396 306.685 773.476 305.238L773.892 304.806Z"/>
	<path fill="#797D62" d="M386.616 318.558C387.606 320.613 386.58 323.425 385.855 325.501C381.223 338.768 370.788 351.076 357.94 356.948C350.542 360.329 344.603 360.825 336.588 360.853L331.358 359.376C329.672 356.671 328.211 353.904 327.392 350.8C326.367 346.91 326.3 340.196 328.62 336.725C329.271 335.751 330.267 334.68 331.414 334.416C330.654 335.597 329.733 336.845 329.166 338.132C327.872 341.067 328.313 345.659 329.423 348.59C330.484 351.393 332.832 353.559 335.557 354.709C341.486 357.212 349.111 356.669 354.976 354.327C370.077 348.297 380.441 332.889 386.616 318.558Z"/>
	<path fill="#797D62" d="M220.08 460.294C218.58 470.151 217.978 478.781 224.157 487.338C229.165 494.273 236.571 497.786 244.169 501.193L237.754 501.741C231.072 499.923 225.095 497.928 220.002 492.978C211.364 484.582 209.209 472.916 208.846 461.352C212.762 461.483 216.269 461.264 220.08 460.294Z"/>
	<path fill="#C48451" d="M661.127 442.248Q666.817 439.322 672.451 436.29L672.919 437.028C678.098 445.108 684.673 452.161 689.627 460.419C691.145 462.95 692.511 465.62 693.183 468.514C695.198 477.193 695.14 502.76 694.945 512.621L693.566 503.442C693.728 491.811 690.994 479.101 686.745 468.313C682.964 458.712 676.857 450.449 667.178 446.252C665.2 444.696 663.337 443.452 661.127 442.248Z"/>
	<path fill="#797D62" d="M766.791 477.776C771.215 479.64 775.583 482.148 779.855 484.343C781.899 491.206 785.623 494.877 790.563 499.731L790.326 500.299C787.442 507.366 782.987 510.762 776.426 514.203C772.147 515.922 768.206 516.5 763.637 516.866C768.36 513.653 772.762 511.753 776.657 507.364C773.68 497.75 771.54 486.623 766.791 477.776Z"/>
	<defs>
		<linearGradient id="gradient_2" gradientUnits="userSpaceOnUse" x1="323.08221" y1="254.92451" x2="259.24551" y2="239.27837">
			<stop offset="0" stop-color="#2E301E"/>
			<stop offset="1" stop-color="#4C4E35"/>
		</linearGradient>
	</defs>
	<path fill="url(#gradient_2)" d="M254.621 206.632C254.552 205.116 254.177 202.988 255 201.688C256.553 203.819 256.444 210.018 257.151 212.884C261.143 229.063 279.207 239.854 294.854 242.091C296.163 242.279 297.274 242.285 298.577 242.1C294.66 240.786 289.964 240.571 286.297 238.747L286.874 238.882L287.21 238.707C289.891 238.905 292.413 238.878 295.092 238.689L296.89 239.052C295.99 239.766 293.481 239.732 292.261 239.861C292.582 239.903 292.905 239.939 293.226 239.986C298.195 240.705 310.618 245.256 314.764 247.719C315.847 248.362 316.761 249.488 317.476 250.504C320.738 255.139 322.115 261.298 321.107 266.893C320.917 267.946 320.407 268.701 319.773 269.533L315.573 270.109C315.799 269.893 316.69 269.058 316.847 268.83C318.026 267.116 317.508 263.238 317.098 261.312C316.638 259.146 315.594 256.146 313.793 254.709C307.829 249.949 297.691 248.646 290.579 246.065Q286.13 244.415 281.906 242.254Q277.681 240.094 273.739 237.453C260.762 228.791 257.548 221.475 254.621 206.632Z"/>
	<path fill="#797D62" d="M369.799 391.189C364.308 400.073 361.89 407.197 364.404 417.645C366.271 425.405 370.344 432.351 374.587 439.022C377.598 444.99 381.136 451.074 386.189 455.555L386.298 456.213C386.151 456.133 385.999 456.059 385.856 455.972C373.531 448.501 360.336 434.094 356.695 419.849C354.697 412.03 355.917 405.419 360.03 398.559C363.079 395.726 366.16 393.221 369.799 391.189Z"/>
	<path fill="#B8B6AC" d="M298.907 836.318C298.097 833.188 296.342 828.557 297.14 825.356C297.445 824.132 298.416 823.368 299.421 822.664C302.842 820.267 306.92 818.467 310.632 816.526C319.205 812.042 328.139 807.664 336.221 802.357C336.029 805.378 335.715 808.399 335.451 811.415L334.498 815.769C333.693 814.796 333.289 813.601 332.805 812.448L332.186 812.874C326.363 818.256 313.459 823.222 306.015 827.068C305.412 834.057 304.596 841.099 305.085 848.118L303.566 848.074C302.636 844.004 300.602 840.121 298.907 836.318Z"/>
	<path fill="#EFCB95" d="M382.216 126.733C381.135 131.408 364.209 143.225 360.017 145.849C344.82 155.36 325.508 160.191 313.845 174.561C304.233 186.237 301.163 198.824 299.531 213.572C299.079 210.595 299.187 207.495 299.339 204.495C300.521 181.173 309.739 165.188 330.954 155.059C337.99 151.7 345.475 149.328 352.559 146.055Q356.592 144.193 360.479 142.044Q364.367 139.895 368.089 137.47Q371.81 135.045 375.347 132.357Q378.883 129.67 382.216 126.733Z"/>
	<defs>
		<linearGradient id="gradient_3" gradientUnits="userSpaceOnUse" x1="286.539" y1="346.94116" x2="320.60654" y2="352.7832">
			<stop offset="0" stop-color="#9E986A"/>
			<stop offset="1" stop-color="#BDB47B"/>
		</linearGradient>
	</defs>
	<path fill="url(#gradient_3)" d="M345.171 309.951C344.687 310.388 344.234 310.844 343.684 311.196Q338.752 312.69 333.791 314.082C317.014 320.824 300.637 329.832 293.128 347.273C288.174 358.78 287.907 371.466 291.209 383.411C291.931 386.025 293.678 389.914 293.399 392.579Q291.164 388.815 288.81 385.125C287.476 382.272 286.314 379.338 285.513 376.287C282.28 363.957 283.725 350.513 290.255 339.497C301.874 319.896 324.71 315.037 345.171 309.951Z"/>
	<path fill="#797D62" d="M277.037 398.307L277.72 398.475C277.152 398.658 276.587 398.847 276.036 399.076C270.973 401.175 267.861 405.203 265.888 410.202C261.863 420.399 263.485 432.026 267.835 441.83C273.524 454.648 284.968 461.777 297.788 466.391C300.785 467.47 303.917 468.006 306.876 469.166L306.292 469.09L306.578 469.469L302.451 469.552Q300.45 469.275 298.471 468.867Q296.492 468.459 294.544 467.922Q292.596 467.386 290.687 466.723Q288.779 466.06 286.918 465.273Q285.057 464.486 283.251 463.579Q281.446 462.672 279.703 461.649Q277.961 460.626 276.29 459.491Q274.618 458.355 273.025 457.113C263.816 449.849 259.005 440.362 257.675 428.763C256.732 420.541 257.443 411.454 262.932 404.824C266.825 400.122 271.226 398.782 277.037 398.307Z"/>
	<path fill="#797D62" d="M298.962 296.565C301.549 294.655 308.32 295.115 311.595 295.549C312.329 295.646 312.494 295.723 313.115 295.923C311.594 298.291 300.687 299.396 297.453 301.686C295.149 303.317 289.746 303.932 288.813 306.693C290.431 307.61 291.64 308.1 293.479 308.41L294.533 307.87L294.998 308.104C294.669 308.971 294.221 308.968 293.359 309.325C293.114 309.426 292.86 309.502 292.614 309.599C290.949 310.254 289.129 312.131 287.737 313.292C280.405 319.407 274.909 325.816 271.424 334.833Q270.817 336.403 270.328 338.013Q269.838 339.623 269.469 341.264Q269.099 342.906 268.852 344.571Q268.605 346.235 268.481 347.913Q268.357 349.592 268.358 351.275Q268.358 352.957 268.483 354.635Q268.608 356.314 268.856 357.978Q269.104 359.642 269.474 361.284C270.089 363.905 271.397 367.224 271.308 369.887C268.281 366.647 265.52 363.41 263.357 359.519C263.511 356.588 262.868 353.33 262.72 350.367C262.236 340.728 264.156 331.905 269.121 323.56C278.282 308.163 294.9 300.288 311.667 296.103C307.426 295.934 303.192 296.293 298.962 296.565Z"/>
	<path fill="#797D62" d="M789.519 428.426L796.117 428.251C796.735 433.927 797.882 439.096 801.819 443.513C806.137 448.358 812.006 450.632 818.399 450.858C829.124 451.236 837.382 446.354 844.99 439.306C843.963 441.134 842.804 442.849 841.631 444.585C840.804 445.675 839.895 446.76 838.897 447.696C831.537 454.599 820.004 458.408 810.02 458.185C804.121 458.054 798.077 456.483 793.998 451.957C788.146 445.464 788.965 436.468 789.519 428.426Z"/>
	<path fill="#797D62" d="M534.7 240.375C531.504 233.402 528.181 229.279 522.585 224.147C521.263 222.934 520.213 222.527 518.529 221.961C517.822 221.723 517.575 221.554 517.133 220.96L517.334 220.356C530.086 226.196 533.768 230.639 541.952 241.864C557.747 264.689 569.409 286.821 564.227 315.482C562.567 324.66 559.225 333.109 555.305 341.524C555.203 337.453 557.706 331.895 558.576 327.78C559.804 321.964 560.41 316.2 560.658 310.268C562.091 299.411 559.32 283.459 555.003 273.357C552.92 268.484 540.328 245.056 537.39 241.935C536.675 241.176 535.652 240.754 534.7 240.375Z"/>
	<path fill="#EFCB95" d="M409.619 205.7C422.873 191.626 434.637 183.107 453.635 177.947C475.771 171.935 496.256 175.642 516.013 186.873C515.774 186.863 515.534 186.86 515.295 186.845C512.557 186.675 509.21 184.712 506.534 183.874Q502.726 182.682 498.815 181.89Q494.904 181.098 490.932 180.714C468.538 178.723 446.532 185.995 426.9 196.222C421.161 199.211 415.487 203.08 409.619 205.7Z"/>
	<path fill="#EFCB95" d="M426.644 170.517C426.443 170.629 426.245 170.747 426.041 170.854C422.804 172.562 417.638 172.34 413.945 173.412C397.32 178.241 382.592 187.272 376.687 204.206C375.233 208.372 374.4 212.696 373.812 217.061C372.597 227.125 374.298 237.331 373.903 247.435C372.813 241.741 370.701 225.155 368.42 221.262L367.444 221.6C367.516 220.09 367.324 218.508 367.287 216.988C366.997 205.146 368.722 195.497 377.251 186.726C389.673 173.952 409.636 170.671 426.644 170.517Z"/>
	<defs>
		<linearGradient id="gradient_4" gradientUnits="userSpaceOnUse" x1="270.95724" y1="433.31091" x2="341.2171" y2="422.14069">
			<stop offset="0" stop-color="#515441"/>
			<stop offset="1" stop-color="#666949"/>
		</linearGradient>
	</defs>
	<path fill="url(#gradient_4)" d="M346.407 431.956C344.446 438.669 341.494 444.466 335.615 448.623C326.96 454.743 314.989 455.711 304.794 454.067C292.754 452.126 281.5 444.979 274.422 435.056C269.637 428.348 266.677 419.299 268.27 411.053C269.147 406.513 272.152 402.619 275.945 400.024L276.375 400.224C274.621 402.318 273.263 404.636 272.358 407.223C270.885 411.436 272.331 418.705 274.316 422.674C277.485 431.842 285.245 441.632 294.099 445.888C297.111 447.336 300.062 448.014 303.312 448.645Q306.276 449.111 309.275 449.193Q312.274 449.274 315.259 448.971C328.323 447.705 338.21 441.951 346.407 431.956Z"/>
	<path fill="#797D62" d="M539.588 63.6316C543.079 66.5373 545.989 70.1901 548.759 73.774C553.382 78.9344 556.064 84.81 559.879 90.4588C559.411 91.2261 558.958 91.6982 558.275 92.2799C556.565 92.0084 555.977 91.0946 554.721 89.9398C553.553 84.9778 550.001 79.2194 547.729 74.5653C547.646 74.7721 547.556 74.9762 547.481 75.1857C546.55 77.7758 548.024 82.9965 548.092 85.9613C548.424 100.53 537.457 112.684 525.291 119.225C512.328 126.194 498.792 126.454 484.493 127.501C480.953 127.761 477.095 127.764 473.63 128.502C470.775 129.109 468.284 130.28 465.562 131.208C465.397 131.264 465.218 131.26 465.046 131.287C466.536 129.254 467.967 127.158 469.699 125.322L470.022 125.572C472.914 125.097 476.771 122.33 480.813 121.552C494.122 118.99 507.995 119.298 521.003 114.955C529.798 112.019 537.539 106.396 541.573 97.859C544.895 90.8325 545.837 80.4854 543.529 73.079C542.59 70.068 540.792 67.4487 539.847 64.4871C539.757 64.2032 539.675 63.9168 539.588 63.6316Z"/>
	<path fill="#EFCB95" d="M475.52 114.395C481.088 112.833 486.52 111.632 492.29 111.133C504.401 110.085 517.315 111.904 527.898 104.616C534.684 99.9421 538.847 92.3593 540.261 84.3451C542.043 74.2435 539.06 65.745 533.25 57.5454L539.588 63.6316C539.675 63.9168 539.757 64.2032 539.847 64.4871C540.792 67.4487 542.59 70.068 543.529 73.079C545.837 80.4854 544.895 90.8325 541.573 97.859C537.539 106.396 529.798 112.019 521.003 114.955C507.995 119.298 494.122 118.99 480.813 121.552C476.771 122.33 472.914 125.097 470.022 125.572L469.699 125.322C471.83 121.753 473.718 118.14 475.52 114.395Z"/>
	<path fill="#797D62" d="M233.763 309.913Q230.96 309.622 228.288 308.725C221.496 306.432 216.231 301.445 213.129 295.026C206.302 280.899 208.501 260.83 213.461 246.474C214.097 250.187 215.123 253.859 216.156 257.478C219.229 267.606 222.253 277.251 232.251 282.737C237.808 285.786 243.49 285.748 249.604 285.337C242.329 287.576 233.702 290.111 226.469 286.371C219.854 282.95 216.783 275.786 214.574 269.095C216.559 283.374 223.349 298.265 235.176 307.113C236.97 308.455 238.884 309.609 240.854 310.671C238.518 310.391 236.113 309.965 233.763 309.913Z"/>
	<path fill="#EFCB95" d="M508.309 171.674C516.152 152.191 531.911 131.591 551.551 122.962C568.918 115.331 587.729 120.524 604.595 127.095L603.714 127.281C577.878 132.573 567.095 122.116 540.435 138.411C537.143 140.424 531.845 143.18 529.528 146.335C529.002 147.052 529.022 147.435 528.952 148.315C527.216 149.642 525.328 150.917 523.84 152.521C521.119 154.927 518.68 157.315 516.456 160.193C514.374 162.886 510.69 169.963 508.309 171.674Z"/>
	<path fill="#585937" d="M293.399 392.579C293.678 389.914 291.931 386.025 291.209 383.411C287.907 371.466 288.174 358.78 293.128 347.273C300.637 329.832 317.014 320.824 333.791 314.082L332.362 318.302C317.489 327.578 301.516 342.304 297.488 360.092C294.227 374.49 298.377 392.389 305.541 405.054C301.018 401.626 296.268 397.541 293.399 392.579Z"/>
	<path fill="#585937" d="M725.588 301.325C730.87 298.505 739.672 302.425 745.57 301.818C750.977 302.184 769.754 302.739 773.892 304.806L773.476 305.238C776.396 306.685 779.529 307.709 782.376 309.292C793.774 315.63 804.204 326.142 808.389 338.674C809.953 343.355 810.541 347.87 810.611 352.792C810.63 354.094 810.325 355.348 811.129 356.395L811.319 356.449C810.803 358.318 809.719 360.034 808.668 361.638C808.465 354.957 807.215 349.656 804.177 343.7C795.443 326.578 781.402 318.155 763.541 312.364C760.391 310.445 730.263 301.761 725.588 301.325Z"/>
	<path fill="#F2E6AE" d="M727.265 137.032C729.022 140.085 730.595 143.114 732.02 146.335C732.375 155.306 732.822 163.543 726.34 170.863C721.016 176.875 711.077 180.498 703.166 180.883C699.939 181.04 696.59 179.903 693.423 180.135L690.684 179.615C666.656 170.653 659.685 148.379 631.84 146.373C624.414 145.838 617.553 148.212 610.338 148.216C610.046 148.217 609.754 148.21 609.462 148.207C612.937 146.877 616.64 145.89 620.283 145.141C635.114 142.093 650.625 143.779 663.079 152.841C669.215 157.306 674.727 162.559 681.1 166.723C689.504 172.215 699.11 175.542 709.192 173.261C715.536 171.827 722.849 167.679 726.231 162.023C730.788 154.403 729.258 145.153 727.265 137.032Z"/>
	<path fill="#797D62" d="M698.839 341.015L699.342 341.866C701.845 346.055 704.633 350.362 708.091 353.831C714.06 359.819 721.269 364.585 727.846 369.863C744.182 382.971 759.022 399.775 753.448 422.118C751.471 430.046 737.847 454.32 731.193 458.99C731.041 459.096 730.872 459.176 730.711 459.269C730.828 458.963 730.934 458.649 731.098 458.366C732.259 456.363 733.51 454.32 734.475 452.217C736.039 449.351 737.609 446.532 738.825 443.497C740.194 442.028 741.218 440.303 742.207 438.564C745.087 433.504 746.797 427.652 747.567 421.902C750.709 398.442 732.076 386.017 717.338 371.373C710.87 364.946 705.595 358.383 701.44 350.277C700.156 347.771 698.431 345.314 697.677 342.591L698.839 341.015Z"/>
	<path fill="#797D62" d="M772.347 352.653C791.229 361.981 817.758 381.223 838.995 373.945C847.135 371.156 853.588 365.105 857.218 357.34C859.089 353.339 860.371 349.083 862.005 344.987C861.277 350.619 860.417 356.037 858.637 361.443C854.558 370.377 846.942 379.938 837.595 383.731C829.604 385.556 821.37 385.378 813.357 383.686C801.451 381.172 780.27 372.325 773.575 361.644C771.497 358.33 771.487 356.404 772.347 352.653Z"/>
	<path fill="#EFCB95" d="M319.773 269.533L318.964 269.975C315.081 272.061 310.69 273.217 306.762 275.26C289.879 284.044 272.02 298.425 264.25 316.233C273.406 304.591 284.522 299.189 298.962 296.565C303.192 296.293 307.426 295.934 311.667 296.103C294.9 300.288 278.282 308.163 269.121 323.56C264.156 331.905 262.236 340.728 262.72 350.367C262.868 353.33 263.511 356.588 263.357 359.519C260.696 355.136 258.612 350.784 257.335 345.796C253.921 332.461 256.023 317.288 263.028 305.443C273.932 287.006 295.057 275.567 315.205 270.306L315.573 270.109L319.773 269.533Z"/>
	<path fill="#F2E6AE" d="M325.411 568.219C327.825 571.177 328.247 577.715 329.156 581.417C332.103 594.08 337.61 606.085 342.76 617.971C357.862 652.826 377.915 687.132 404.501 714.549C411.131 721.387 418.368 727.596 425.64 733.734C434.011 740.8 442.685 747.871 452.022 753.64C454.217 754.996 471.301 763.305 471.782 764.214C453.974 758.324 433.215 744.308 418.443 732.884C410.42 726.68 402.924 719.733 395.454 712.886C387.456 705.555 379.39 698.068 372.705 689.485C356.753 669.006 348.322 641.94 339.79 617.743C334.347 602.307 327.445 584.498 325.411 568.219Z"/>
	<path fill="#EFCB95" d="M574.524 226.241C597.877 223.472 619.407 228.006 638.189 242.711C652.952 254.269 663.674 272.336 673.636 287.97C679.015 296.411 684.441 304.526 688.632 313.67C692.687 322.52 694.752 332.319 698.839 341.015L697.677 342.591C697.001 340.956 696.103 339.402 695.28 337.837C694.046 333.586 685.695 319.73 683.195 314.533C682.728 312.316 680.859 309.381 679.731 307.367C677.373 303.161 674.345 299.377 671.805 295.283C659.017 274.67 651.55 262.265 631.172 247.86C624.818 243.369 618.316 239.445 610.791 237.278C602.017 234.033 592.407 229.849 583.091 228.705C578.695 228.165 573.584 229.237 569.364 228.185C568.234 227.904 568.65 228.184 568.05 227.155L574.524 226.241Z"/>
	<path fill="#C99B67" d="M609.501 783.622C611.929 789.481 614.223 795.373 617.074 801.047C621.56 809.977 626.851 818.497 631.388 827.412C630.794 831.389 630.316 835.288 628.791 839.039C624.369 849.918 611.106 862.758 601.763 870.116Q603.369 859.848 604.119 849.482C604.486 844.207 604.222 838.359 605.581 833.277C607.03 828.799 607.063 823.335 607.493 818.65C608.572 806.915 609.431 795.405 609.501 783.622Z"/>
	<path fill="#F2E6AE" d="M717.595 519.359C725.591 513.153 735.046 508.075 745.541 509.58C751.919 510.494 757.891 513.846 761.681 519.096C769 529.235 770.609 545.479 768.503 557.488C765.963 571.963 756.928 584.358 747.044 594.841C743.574 598.521 739.967 602.393 736.096 605.647C733.335 607.969 729.894 609.946 727.38 612.5C726.699 613.192 726.525 613.279 726.497 614.212C726.436 616.194 726.313 617.318 725.324 619.009C720.048 628.023 713.541 638.671 702.672 641.424C697.007 642.859 688.089 641.868 682.953 638.818C682.063 638.29 681.645 637.757 681.217 636.842C684.033 635.138 694.107 634.809 698.437 633.136C703.188 631.301 707.156 628.04 710.901 624.653C715.84 620.186 719.881 614.474 724.423 609.571C730.628 602.874 737.733 596.687 743.286 589.436C749.053 581.907 754.846 573.397 758.597 564.68C762.942 554.582 764.471 540.658 759.994 530.331C758.366 526.577 755.363 523.912 751.865 521.911C736.876 513.333 723.048 521.904 718.253 519.697C718.029 519.594 717.815 519.472 717.595 519.359Z"/>
	<defs>
		<linearGradient id="gradient_5" gradientUnits="userSpaceOnUse" x1="320.39984" y1="559.43616" x2="270.51202" y2="590.61871">
			<stop offset="0" stop-color="#F4D2A1"/>
			<stop offset="1" stop-color="#FEEFB6"/>
		</linearGradient>
	</defs>
	<path fill="url(#gradient_5)" d="M321.023 642.956C318.365 642.089 316.062 640.979 313.81 639.312C307.797 634.858 302.688 628.868 297.528 623.473C279.488 604.608 257.57 580.984 253.553 554.287C251.763 542.391 252.996 526.299 260.556 516.413C264.048 511.848 269.434 508.256 275.223 507.582C281.697 506.828 287.095 508.638 292.129 512.626C294.446 516.395 298.914 521.154 297.988 525.819C297.243 526.945 296.625 527.597 295.27 527.969C292.783 528.653 290.526 527.277 288.449 526.087C282.302 523.173 277.053 522.934 270.457 523.933C266.803 525.16 263.906 528.182 262.169 531.567C257.343 540.971 259.462 553.772 262.736 563.328C269.103 581.909 285.244 602.984 300.823 615.161C306.016 619.22 312.66 621.705 316.973 626.821C320.176 630.621 323.048 638.002 321.023 642.956Z"/>
	<defs>
		<linearGradient id="gradient_6" gradientUnits="userSpaceOnUse" x1="338.7403" y1="852.2793" x2="370.9436" y2="851.58386">
			<stop offset="0" stop-color="#4A4E51"/>
			<stop offset="1" stop-color="#807F7F"/>
		</linearGradient>
	</defs>
	<path fill="url(#gradient_6)" d="M370.136 759.826L372.173 759.874L372.693 760.803C366.512 767.873 360.176 774.508 354.753 782.223C355.06 787.713 354.893 793.222 355.257 798.707C355.879 808.069 357.168 817.626 358.686 826.889C363.022 853.344 370.164 879.437 373.679 906.033C365.692 891.223 358.89 875.849 352.317 860.371C349.475 853.679 346.957 846.745 343.866 840.177C343.227 838.821 342.415 837.876 341.315 836.875C338.495 824.586 335.41 813.526 338.701 800.971C338.465 800.315 338.249 799.657 338.28 798.946C338.534 792.94 363.868 765.748 370.136 759.826Z"/>
	<path fill="#797D62" d="M352.026 831.886C350.898 814.228 342.927 799.772 354.079 783.016C354.818 791.565 353.455 798.892 352.904 807.32C352.306 816.482 353.556 826.685 355.604 835.577C358.382 847.077 360.854 858.287 361.92 870.081C360.017 865.236 357.079 860.1 355.688 855.141C352.756 848.541 350.703 841.403 348.184 834.62C349.313 835.286 350.23 835.749 351.502 836.125C352.343 834.906 352.019 833.352 352.026 831.886Z"/>
	<path fill="#B8B6AC" d="M352.026 831.886L352.485 834.631C352.595 840.984 356.224 849.819 355.688 855.141C352.756 848.541 350.703 841.403 348.184 834.62C349.313 835.286 350.23 835.749 351.502 836.125C352.343 834.906 352.019 833.352 352.026 831.886Z"/>
	<defs>
		<linearGradient id="gradient_7" gradientUnits="userSpaceOnUse" x1="338.96292" y1="798.09448" x2="372.99432" y2="797.19684">
			<stop offset="0" stop-color="#A3A4A0"/>
			<stop offset="1" stop-color="#D7CAB4"/>
		</linearGradient>
	</defs>
	<path fill="url(#gradient_7)" d="M370.136 759.826L372.173 759.874L372.693 760.803C366.512 767.873 360.176 774.508 354.753 782.223L354.079 783.016C342.927 799.772 350.898 814.228 352.026 831.886C352.019 833.352 352.343 834.906 351.502 836.125C350.23 835.749 349.313 835.286 348.184 834.62C343.586 825.936 341.107 810.832 338.701 800.971C338.465 800.315 338.249 799.657 338.28 798.946C338.534 792.94 363.868 765.748 370.136 759.826Z"/>
	<path fill="#F2E6AE" d="M725.87 227.374C730.836 222.3 737.605 220.237 744.583 220.203C756.929 220.142 770.16 225.134 778.961 233.921C782.616 237.57 785.321 242.2 785.311 247.488C785.294 256.881 772.071 271.539 780.656 280.008C784.439 283.741 792.209 285.387 797.359 285.139C804.312 284.803 812.009 280.856 816.459 275.536C820.463 270.747 821.888 265.247 823.234 259.303C823.431 263.836 823.198 268.048 822.149 272.476C818.042 281.072 811.747 286.91 802.695 290.018C800.953 290.616 799.147 291.063 797.35 291.466C796.829 291.657 796.779 291.689 796.151 291.837C791.556 292.916 786.203 292.727 781.541 292.253C756.204 289.682 764.436 270.089 752.729 260.044C748.468 256.387 742.106 259.739 738.028 257.032C746.624 254.304 757.881 257.353 766.671 257.871C767.753 256.938 767.489 256.364 767.607 255.009C768.382 253.916 768.731 252.85 768.814 251.518C769.108 246.793 766.944 241.64 763.763 238.21C757.112 231.035 746.58 229.284 737.281 228.977C736.301 228.11 735.183 227.598 733.864 227.524C733.654 227.512 733.443 227.525 733.232 227.525C734.075 227.087 733.8 227.277 734.494 226.755C734.644 226.642 734.791 226.524 734.94 226.409C731.924 226.556 728.829 227.351 725.87 227.374Z"/>
	<path fill="#797D62" d="M734.94 226.409C744.183 224.237 756.752 227.454 764.656 232.377C769.939 235.668 776.079 240.681 777.612 246.969C780.326 258.098 765.672 266.02 770.798 277.975C771.98 280.73 773.764 282.757 776.299 284.348C782.773 288.412 790.555 288.412 797.35 291.466C796.829 291.657 796.779 291.689 796.151 291.837C791.556 292.916 786.203 292.727 781.541 292.253C756.204 289.682 764.436 270.089 752.729 260.044C748.468 256.387 742.106 259.739 738.028 257.032C746.624 254.304 757.881 257.353 766.671 257.871C767.753 256.938 767.489 256.364 767.607 255.009C768.382 253.916 768.731 252.85 768.814 251.518C769.108 246.793 766.944 241.64 763.763 238.21C757.112 231.035 746.58 229.284 737.281 228.977C736.301 228.11 735.183 227.598 733.864 227.524C733.654 227.512 733.443 227.525 733.232 227.525C734.075 227.087 733.8 227.277 734.494 226.755C734.644 226.642 734.791 226.524 734.94 226.409Z"/>
	<path fill="#797D62" d="M732.02 146.335C733.47 149.951 734.406 153.607 735.113 157.436C735.155 169.687 730.982 181.319 722.276 190.119Q721.54 190.862 720.768 191.567Q719.996 192.272 719.19 192.938Q718.383 193.604 717.545 194.229Q716.707 194.853 715.838 195.436Q714.97 196.018 714.074 196.557Q713.178 197.096 712.256 197.589Q711.334 198.082 710.388 198.529Q709.443 198.976 708.477 199.376Q707.51 199.775 706.526 200.126Q705.541 200.477 704.539 200.778Q703.538 201.08 702.523 201.331Q701.508 201.583 700.482 201.783Q699.456 201.984 698.421 202.133Q697.386 202.282 696.345 202.38Q695.304 202.478 694.259 202.523Q693.215 202.569 692.169 202.563C677.872 202.483 663.607 196.016 649.55 193.523C642.286 192.235 634.938 191.604 627.583 191.127C624.203 190.907 620.645 191.013 617.313 190.525C611.958 191.189 606.91 192.051 601.843 193.955C598.583 195.179 591.445 199.548 588.715 199.792C596.342 193.272 604.91 189.528 614.04 185.669Q617.733 184.648 621.484 183.871Q625.236 183.094 629.03 182.565Q632.825 182.036 636.646 181.757Q640.467 181.478 644.298 181.45C648.322 180.853 652.536 181.006 656.6 180.973Q667.04 180.816 677.482 180.83C682.61 180.861 687.915 181.245 693.006 180.752L693.423 180.135C696.59 179.903 699.939 181.04 703.166 180.883C711.077 180.498 721.016 176.875 726.34 170.863C732.822 163.543 732.375 155.306 732.02 146.335Z"/>
	<path fill="#EFCB95" d="M614.04 185.669Q617.733 184.648 621.484 183.871Q625.236 183.094 629.03 182.565Q632.825 182.036 636.646 181.757Q640.467 181.478 644.298 181.45L644.921 181.492C650.359 181.833 655.921 181.268 661.316 181.861C653.185 182.029 617.777 182.133 613.045 187.535C612.555 188.095 612.531 188.232 612.242 188.834L612.477 189.956C613.605 190.584 614.226 190.888 615.524 190.447C615.88 190.326 616.722 189.9 617.037 189.75C622.67 187.077 655.015 182.743 661.424 183.24C651.142 185.761 624.58 185.623 617.313 190.525C611.958 191.189 606.91 192.051 601.843 193.955C598.583 195.179 591.445 199.548 588.715 199.792C596.342 193.272 604.91 189.528 614.04 185.669Z"/>
	<path fill="#797D62" d="M570.538 142.102C579.168 139.035 587.254 135.98 596.327 134.311C604.702 132.771 613.433 132.367 621.662 130.183C628.337 128.41 634.833 125.072 638.311 118.82C642.23 111.775 640.762 104.793 638.803 97.4813C640.084 99.9679 641.253 102.501 642.426 105.04C642.874 112.688 643.735 120.829 638.209 127.036C630.719 135.449 617.814 135.789 608.35 140.647C593.04 145.385 580.115 150.73 572.318 165.677Q569.604 170.813 567.979 176.391C565.895 185.478 564.21 194.609 564.408 203.979C562.94 201.91 562.809 196.791 562.453 194.209C563.162 190.661 562.588 185.869 563.93 182.629C564.02 178.742 564.707 174.908 565.302 171.073C566.587 164.021 568.4 156.425 571.672 150.032C569.832 151.749 567.96 153.546 566.356 155.488C553.314 171.273 552.41 197.261 554.14 216.654C546.899 196.004 542.438 174.387 548.288 152.88C551.873 144.752 554.665 136.493 562.51 131.549C553.725 134.384 545.531 138.153 537.595 142.872C534.678 144.607 531.915 146.689 528.952 148.315C529.022 147.435 529.002 147.052 529.528 146.335C531.845 143.18 537.143 140.424 540.435 138.411C567.095 122.116 577.878 132.573 603.714 127.281L604.595 127.095C606.293 127.495 607.847 127.994 609.461 128.656C593.397 129.67 583.463 132.413 570.538 142.102Z"/>
	<defs>
		<linearGradient id="gradient_8" gradientUnits="userSpaceOnUse" x1="787.96802" y1="316.7114" x2="709.36816" y2="223.78011">
			<stop offset="0" stop-color="#2B2B18"/>
			<stop offset="1" stop-color="#4C4C32"/>
		</linearGradient>
	</defs>
	<path fill="url(#gradient_8)" d="M715.959 259.307L714.563 259.956L715.084 260.27L715.721 259.654L715.541 260.261C723.062 259.695 730.465 257.46 738.028 257.032C742.106 259.739 748.468 256.387 752.729 260.044C764.436 270.089 756.204 289.682 781.541 292.253C786.203 292.727 791.556 292.916 796.151 291.837C796.779 291.689 796.829 291.657 797.35 291.466C799.147 291.063 800.953 290.616 802.695 290.018C811.747 286.91 818.042 281.072 822.149 272.476C823.852 276.4 821.332 282.504 819.835 286.279C816.935 293.598 812.168 299.563 804.717 302.678Q802.637 303.545 800.441 304.049Q798.245 304.553 795.995 304.679C788.75 305.102 748.487 299.918 745.57 301.818C739.672 302.425 730.87 298.505 725.588 301.325L723.376 301.285C732.381 297.123 736.954 289.932 740.723 281.12C741.174 279.403 742.037 277.336 742.019 275.574C742.006 274.284 741.669 274.136 740.805 273.288L739.962 272.324C734.808 271.572 729.202 271.755 723.987 271.476C706.328 270.533 682.663 268.979 668.25 257.614L668.822 256.98C677.705 256.973 686.409 258.781 695.262 259.06C700.039 259.211 712.348 257.97 715.959 259.307Z"/>
	<path fill="#B8B6AC" d="M727.399 850.418L727.826 849.196C730.094 848.956 859.629 923.411 868.138 930.711C872.486 934.442 875.516 941.613 878.06 946.708C890.526 971.677 898.974 996.701 904.701 1024L900.23 1024C894.512 998.093 882.494 958.833 866.276 938.194C865.29 938.678 865.123 939.633 864.776 940.637C860.301 953.541 856.644 966.971 852.886 980.1C851.324 985.557 848.828 991.977 848.16 997.601Q845.17 1005.43 843.3 1013.6C842.112 1004.07 852.329 961.117 855.263 949.85C856.854 946.562 857.301 941.764 857.972 938.153C849.562 933.09 840.755 928.724 832.35 923.621C810.135 910.135 788.78 895.83 767.366 881.138C755.354 872.897 743.349 865.244 732.314 855.673C730.461 854.075 728.165 852.761 727.399 850.418Z"/>
	<path fill="#B8B6AC" d="M597.382 876.191C608.065 867.409 621.503 854.931 628.532 843.032C627.139 850.175 626.339 859.377 623.344 865.929C621.933 869.015 618.903 871.758 616.59 874.236C607.036 884.475 597.155 893.354 585.525 901.162C557.882 919.721 528.092 932.721 494.162 925.939C486.16 924.34 478.481 921.702 471.033 918.395C464.568 908.278 455.021 901.311 446.907 892.783L447.866 892.959L447.131 892.949C447.744 893.058 448.465 893.24 449.095 893.284C449.348 893.301 449.603 893.293 449.857 893.298Q459.798 898.534 470.015 903.209C477.565 905.726 484.83 908.712 492.728 910.071C532.172 916.856 566.55 898.124 597.382 876.191Z"/>
	<defs>
		<linearGradient id="gradient_9" gradientUnits="userSpaceOnUse" x1="519.61646" y1="873.31012" x2="544.05878" y2="917.78748">
			<stop offset="0" stop-color="#CFC8C8"/>
			<stop offset="1" stop-color="#E9E9E9"/>
		</linearGradient>
	</defs>
	<path fill="url(#gradient_9)" d="M597.382 876.191C597.585 877.259 597.762 877.04 597.058 878.048C594.583 881.588 590.451 884.882 587.368 887.965C571.457 903.874 553.035 917.906 530.186 921.186C511.469 923.873 486.359 918.514 471.109 907.117C469.801 906.139 467.319 904.361 466.766 902.846L466.695 903.14C467.722 903.049 467.832 902.926 468.807 903.395L470.015 903.209C477.565 905.726 484.83 908.712 492.728 910.071C532.172 916.856 566.55 898.124 597.382 876.191Z"/>
	<path fill="#B8B6AC" d="M118.349 1024C119.87 1015.31 121.766 1006.9 124.33 998.468C129.921 980.078 137.304 963.246 145.932 946.117C148.233 941.549 150.513 935.995 153.829 932.112C157.392 927.94 170.921 921.204 176.124 918.112C202.954 902.173 230.064 886.905 257.148 871.42C269.49 864.363 281.606 856.605 294.14 849.929C295.18 851.072 295.157 852.578 295.442 854.078C295.153 855.871 293.646 856.877 292.376 858.046C284.843 863.791 277.592 870.087 269.889 875.572C237.763 898.448 201.657 918.12 166.524 936.025C167.502 939.272 168.028 943.557 169.383 946.545C172.32 963.893 176.071 980.744 180.612 997.743C182.237 1003.82 183.616 1010.22 185.759 1016.12C184.772 1014.86 183.782 1013.34 182.487 1012.42C174.378 990.563 167.811 968.386 161.241 946.036L157.912 933.019C156.256 936.524 155.113 940.349 153.826 944.006Q148.891 953.465 144.601 963.232Q140.311 973 136.684 983.033Q133.057 993.066 130.11 1003.32Q127.162 1013.57 124.908 1024L118.349 1024Z"/>
	<path fill="#797D62" d="M561.657 228.293C563.775 227.788 565.899 227.475 568.05 227.155C568.65 228.184 568.234 227.904 569.364 228.185C573.584 229.237 578.695 228.165 583.091 228.705C592.407 229.849 602.017 234.033 610.791 237.278C618.316 239.445 624.818 243.369 631.172 247.86C651.55 262.265 659.017 274.67 671.805 295.283C674.345 299.377 677.373 303.161 679.731 307.367C680.859 309.381 682.728 312.316 683.195 314.533C685.695 319.73 694.046 333.586 695.28 337.837C695.233 339.785 695.64 341.284 696.203 343.141C698.437 348.306 701.156 353.204 703.301 358.43C697.362 352.96 692.553 346.833 688.351 339.961L684.593 331.83C686.404 342.738 685.101 354.133 684.574 365.13C682.836 353.286 681.058 340.651 677.779 329.146C671.831 308.277 658.745 284.898 646.633 266.887C648.85 272.317 651.985 277.396 654.574 282.658C661.969 297.686 666.9 313.825 664.541 330.683C663.911 328.828 663.632 326.9 663.29 324.977C662.323 313.586 656.98 299.486 650.443 290.107C647.569 309.522 647.67 318.924 637.49 337.041C635.121 341.257 632.605 345.72 629.067 349.073C635.518 331.698 641.19 313.731 638.078 294.956C637.215 286.189 635.704 277.909 631.858 269.906C629.776 261.261 620.083 251.967 614.624 245.027L614.012 245.328C615.716 248.422 618.27 250.862 619.961 254C626.148 265.485 627.375 280.571 627.207 293.371C627.066 297.817 625.314 309.252 622.781 312.592C622.64 312.777 622.45 312.918 622.284 313.081L622.108 313.966C621.701 311.609 623.502 306.914 623.785 304.244C625.057 292.235 621.356 277.935 615.41 267.537C615.392 267.462 615.379 267.385 615.354 267.312C614.288 264.129 611.917 260.763 609.992 258.03C602.055 246.759 590.812 235.736 577.281 231.666C574.111 230.712 563.74 229.521 562.032 228.565C561.897 228.49 561.782 228.383 561.657 228.293Z"/>
	<path fill="#797D62" d="M332.186 812.874L332.805 812.448C333.289 813.601 333.693 814.796 334.498 815.769C333.412 852.245 345.875 901.223 359.555 934.955C364.332 946.735 370.811 957.938 375.193 969.824C371.977 967.028 369.177 963.426 366.337 960.24C349.993 941.902 332.122 918.584 321.114 896.639C318.728 891.882 317.003 886.684 315.033 881.741C311.751 873.501 308.373 865.312 305.275 856.998C304.901 854.5 302.587 850.383 303.566 848.074L305.085 848.118C304.596 841.099 305.412 834.057 306.015 827.068C313.459 823.222 326.363 818.256 332.186 812.874Z"/>
	<path fill="#797D62" d="M552.719 403.421C554.176 407.678 555.754 411.023 559.558 413.691C567.82 419.485 582.654 417.381 591.933 415.525C613.76 411.159 630.155 399.768 642.381 381.32C642.592 399.862 655.714 402.722 659.952 417.468C662.406 426.007 660.877 433.396 656.64 440.965C653.397 430.72 647.844 416.931 637.462 411.852C634.899 410.598 631.95 410.08 629.252 411.18C625.276 412.802 621.854 415.765 617.887 417.587C598.451 426.514 573.254 434.589 552.404 426.435Q551.568 426.107 550.739 425.765C530.94 440.933 507.617 446.024 482.913 444.797C494.258 436.629 505.255 412.361 510.702 399.519C502.555 403.019 493.992 405.846 485.04 406.03C464.555 406.45 429.883 390.541 418.861 417.053C416.787 422.043 415.38 429.279 417.471 434.367C418.157 436.036 419.254 437.399 420.382 438.786C414.828 442.056 409.417 445.913 403.532 448.55C399.447 450.381 394.923 451.177 390.925 453.198C389.227 451.117 387.579 448.749 386.327 446.371C383.996 441.942 383.022 437.287 384.635 432.436C386.459 426.951 390.382 423.492 395.33 420.895Q396.087 422.613 396.916 424.297C401.196 432.928 406.53 437.872 415.755 441.019C413.957 438.087 411.729 435.432 410.078 432.397C407.107 426.937 406.976 421.147 408.734 415.27C411.475 406.1 417.162 398.808 425.659 394.357C432.669 390.685 443.689 386.003 451.738 388.061C455.865 389.116 459.747 391.163 463.825 392.417C484.605 398.804 505.753 390.875 524.015 381.342C524.65 404.449 508.768 416.409 495.754 433.033C502.01 433.018 508.048 432.125 514.091 430.499C530.596 426.057 544.078 418.437 552.719 403.421Z"/>
	<path fill="#C99B67" d="M292.129 512.626C306.436 521.038 311.483 541.443 316.919 555.922C319.022 561.523 321.848 566.892 323.373 572.693C328.948 593.903 334.904 614.688 341.943 635.477C337.101 639.809 331.581 643.654 324.757 643.491C323.482 643.46 322.259 643.254 321.023 642.956C323.048 638.002 320.176 630.621 316.973 626.821C312.66 621.705 306.016 619.22 300.823 615.161C285.244 602.984 269.103 581.909 262.736 563.328C259.462 553.772 257.343 540.971 262.169 531.567C263.906 528.182 266.803 525.16 270.457 523.933C277.053 522.934 282.302 523.173 288.449 526.087C290.526 527.277 292.783 528.653 295.27 527.969C296.625 527.597 297.243 526.945 297.988 525.819C298.914 521.154 294.446 516.395 292.129 512.626Z"/>
	<path fill="#C48451" d="M288.223 547.977C290.815 548.855 292.563 550.134 293.952 552.533C294.061 552.722 294.142 552.927 294.237 553.124C293.857 556.638 294.686 559.722 295.836 562.995L292.521 563.209C292.1 560.228 293.179 557.988 293.226 555.112Q293.232 554.797 293.205 554.484Q293.177 554.171 293.116 553.862Q293.055 553.553 292.96 553.253Q292.866 552.953 292.74 552.665Q292.614 552.376 292.458 552.103Q292.301 551.83 292.117 551.576Q291.932 551.321 291.72 551.088Q291.509 550.855 291.274 550.646C290.345 549.807 289.831 549.598 288.602 549.622C286.89 550.901 286.54 553.165 285.347 554.889C285.174 555.139 284.995 555.385 284.819 555.633C285.268 553.001 286.15 551.068 287.344 548.71L288.223 547.977Z"/>
	<path fill="#9B5633" d="M289.915 545.551C291.159 544.828 291.723 544.415 293.216 544.548C294.232 545.11 295.069 545.696 295.961 546.44C295.867 548.991 294.71 550.716 294.237 553.124C294.142 552.927 294.061 552.722 293.952 552.533C292.563 550.134 290.815 548.855 288.223 547.977L289.915 545.551Z"/>
	<path fill="#202020" d="M287.303 544.136C288.745 544.351 288.838 544.536 289.915 545.551L288.223 547.977L287.344 548.71C286.15 551.068 285.268 553.001 284.819 555.633C283.701 561.804 284.803 568.695 285.384 574.9C284.405 572.057 283.517 569.391 283.127 566.395C282.179 562.474 282.229 558.356 282.472 554.355C282.512 553.049 282.897 551.681 283.143 550.396C284.222 548.088 285.776 546.158 287.303 544.136Z"/>
	<path fill="#202020" d="M270.457 523.933C277.053 522.934 282.302 523.173 288.449 526.087L288.039 527.11C299.433 532.776 305.065 545.745 310.048 556.686C311.897 560.744 313.951 564.833 315.366 569.064C318.171 577.455 310.814 583.536 312.928 591.287C314.997 598.875 321.818 601.744 325.314 608.158C326.441 610.226 327 612.746 327.636 615.007C314.591 611.725 301.819 609.992 294.251 597.53C289.85 590.284 287.757 579.802 289.909 571.502C290.264 570.132 290.75 568.788 291.226 567.457C291.368 566.139 292.106 564.494 292.521 563.209L295.836 562.995C294.686 559.722 293.857 556.638 294.237 553.124C294.71 550.716 295.867 548.991 295.961 546.44C295.069 545.696 294.232 545.11 293.216 544.548C291.723 544.415 291.159 544.828 289.915 545.551C288.838 544.536 288.745 544.351 287.303 544.136C285.822 543.259 284.542 541.97 283.033 541.067C278.726 538.487 273.813 537.776 269.046 536.486C266.433 548.156 269.348 559.48 272.629 570.667C270.085 565.871 267.739 561.131 266.437 555.832C264.231 546.849 264.297 537.538 269.178 529.469C269.464 527.583 269.628 525.67 270.457 523.933Z"/>
	<path fill="#C48451" d="M270.457 523.933C277.053 522.934 282.302 523.173 288.449 526.087L288.039 527.11C282.917 525.588 277.922 524.184 272.865 526.824C271.476 527.549 270.347 528.438 269.178 529.469C269.464 527.583 269.628 525.67 270.457 523.933Z"/>
	<path fill="#9B5633" d="M269.046 536.486C270.048 533.41 271.202 530.766 274.264 529.276C277.336 527.782 281.186 528.255 284.26 529.472C298 534.914 306.737 557.933 312.086 570.735C312.7 572.204 313.2 573.72 313.419 575.3C307.185 571.633 304.478 571.112 300.741 564.195L300.297 563.365C297.761 558.686 298.538 551.746 296.883 546.541L295.961 546.44C295.069 545.696 294.232 545.11 293.216 544.548C291.723 544.415 291.159 544.828 289.915 545.551C288.838 544.536 288.745 544.351 287.303 544.136C285.822 543.259 284.542 541.97 283.033 541.067C278.726 538.487 273.813 537.776 269.046 536.486Z"/>
	<path fill="#774236" d="M295.961 546.44L296.883 546.541C298.538 551.746 297.761 558.686 300.297 563.365L300.741 564.195C304.478 571.112 307.185 571.633 313.419 575.3C310.93 581.148 307.934 587.272 310.567 593.644C313.658 601.126 321.557 604.509 324.749 612.102C319.072 609.894 312.824 609.218 307.3 606.986C304.44 605.218 301.902 603.306 299.605 600.841C290.876 591.474 290.747 579.494 291.226 567.457C291.368 566.139 292.106 564.494 292.521 563.209L295.836 562.995C294.686 559.722 293.857 556.638 294.237 553.124C294.71 550.716 295.867 548.991 295.961 546.44Z"/>
	<path fill="#797D62" d="M295.836 562.995C298.034 567.541 301.539 572.069 303.254 576.703C303.732 577.993 303.823 579.328 303.894 580.689C304.129 585.214 304.257 589.721 304.954 594.209C305.617 598.482 306.774 602.697 307.3 606.986C304.44 605.218 301.902 603.306 299.605 600.841C290.876 591.474 290.747 579.494 291.226 567.457C291.368 566.139 292.106 564.494 292.521 563.209L295.836 562.995Z"/>
	<path fill="#EFCB95" d="M717.595 519.359C717.815 519.472 718.029 519.594 718.253 519.697C723.048 521.904 736.876 513.333 751.865 521.911C755.363 523.912 758.366 526.577 759.994 530.331C764.471 540.658 762.942 554.582 758.597 564.68C754.846 573.397 749.053 581.907 743.286 589.436C737.733 596.687 730.628 602.874 724.423 609.571C719.881 614.474 715.84 620.186 710.901 624.653C707.156 628.04 703.188 631.301 698.437 633.136C694.107 634.809 684.033 635.138 681.217 636.842C683.071 633.13 683.923 627.933 684.868 623.862C688.49 608.246 690.323 592.043 694.727 576.633C700.158 571.628 702.188 564.49 706.047 558.442C706.532 557.648 706.587 556.559 706.754 555.645C704.388 545.673 708.663 535.348 711.398 526.031C713.237 523.574 715.217 521.308 717.595 519.359Z"/>
	<path fill="#202020" d="M706.754 555.645Q707.142 554.582 707.581 553.539Q708.021 552.496 708.511 551.477Q709.001 550.457 709.541 549.462Q710.081 548.468 710.669 547.501Q711.257 546.534 711.892 545.597Q712.527 544.661 713.208 543.756Q713.888 542.852 714.612 541.982Q715.336 541.112 716.101 540.279Q716.867 539.446 717.673 538.651Q718.479 537.857 719.323 537.103Q720.167 536.349 721.047 535.638Q721.927 534.926 722.841 534.259Q723.755 533.592 724.7 532.97Q725.646 532.349 726.621 531.774Q727.596 531.2 728.598 530.674Q729.6 530.149 730.627 529.673C735.685 527.296 742.09 525.305 747.587 527.17C751.212 528.4 754.032 531.167 755.569 534.646C759.48 543.492 756.9 555.222 753.364 563.778C750.355 571.058 745.597 578.933 739.961 584.477C742.321 580.357 744.752 576.264 746.876 572.017C751.192 566.595 753.201 557.487 753.664 550.67C754.04 545.134 754.237 536.241 750.114 531.878C748.288 529.945 745.238 529.542 742.713 529.563C733.096 529.642 723.574 535.893 717.064 542.525C699.181 560.744 713.383 564.082 713.274 580.181C713.191 592.344 703.286 601.022 695.345 608.905C701.731 607.755 709.395 606.801 714.913 603.174C722.361 598.279 729.404 588.457 730.83 579.578C732.081 571.788 726.668 569.74 722.909 564.319L724.156 564.092C726.543 565.568 728.919 567.281 730.595 569.56C732.758 572.5 733.273 576.041 732.665 579.584C730.367 592.982 720.724 604.707 707.461 608.264C701.722 609.803 695.623 609.686 690.625 613.163L690.017 613.593C696.485 601.368 711.149 594.551 710.539 578.876C710.27 571.951 706.278 566.077 706.061 559.067L706.047 558.442C706.532 557.648 706.587 556.559 706.754 555.645Z"/>
	<path fill="#9B5633" d="M695.345 608.905C703.286 601.022 713.191 592.344 713.274 580.181C713.383 564.082 699.181 560.744 717.064 542.525C723.574 535.893 733.096 529.642 742.713 529.563C745.238 529.542 748.288 529.945 750.114 531.878C754.237 536.241 754.04 545.134 753.664 550.67C753.201 557.487 751.192 566.595 746.876 572.017C748.046 567.862 749.306 563.71 749.654 559.389C750.321 551.088 747.538 543.423 742.152 537.161C738.465 546.798 731.463 556.877 724.156 564.092L722.909 564.319C726.668 569.74 732.081 571.788 730.83 579.578C729.404 588.457 722.361 598.279 714.913 603.174C709.395 606.801 701.731 607.755 695.345 608.905Z"/>
	<defs>
		<linearGradient id="gradient_10" gradientUnits="userSpaceOnUse" x1="496.90384" y1="378.35089" x2="541.25531" y2="488.85101">
			<stop offset="0" stop-color="#C19462"/>
			<stop offset="1" stop-color="#DDB37A"/>
		</linearGradient>
	</defs>
	<path fill="url(#gradient_10)" d="M420.382 438.786C419.254 437.399 418.157 436.036 417.471 434.367C415.38 429.279 416.787 422.043 418.861 417.053C429.883 390.541 464.555 406.45 485.04 406.03C493.992 405.846 502.555 403.019 510.702 399.519C505.255 412.361 494.258 436.629 482.913 444.797C507.617 446.024 530.94 440.933 550.739 425.765Q551.568 426.107 552.404 426.435C573.254 434.589 598.451 426.514 617.887 417.587C621.854 415.765 625.276 412.802 629.252 411.18C631.95 410.08 634.899 410.598 637.462 411.852C647.844 416.931 653.397 430.72 656.64 440.965C655.776 442.386 654.936 443.83 654.027 445.222L661.127 442.248C663.337 443.452 665.2 444.696 667.178 446.252C664.482 447.011 661.05 448.357 658.272 448.356L657.926 448.153C659.471 447.758 661.024 447.388 662.538 446.884C663.288 446.635 663.979 446.49 664.757 446.366C664.259 445.214 663.217 444.144 661.93 443.808C658.773 442.982 655.334 447.115 652.333 445.92C644.996 442.999 639.462 429.949 631.184 429.122C624.598 428.464 610.477 431.935 603.666 433.238C586.532 436.516 569.154 439.465 552.148 443.346C540.089 446.098 528.283 449.87 516.162 452.381C502.694 455.171 488.943 456.181 475.307 457.78Q477.225 466.782 479.879 475.595C475.811 473.445 472.015 471.255 467.728 469.523L467.529 469.586C466.547 470.9 467.015 475.629 467.009 477.45C465.956 473.745 464.774 468.076 461.645 465.593C460.621 464.78 460.001 465.905 458.372 465.066C440.143 455.68 416.457 456.356 396.497 458.13C394.534 456.614 392.747 454.876 390.925 453.198C394.923 451.177 399.447 450.381 403.532 448.55C409.417 445.913 414.828 442.056 420.382 438.786Z"/>
	<path fill="#797D62" d="M166.524 936.025C201.657 918.12 237.763 898.448 269.889 875.572C277.592 870.087 284.843 863.791 292.376 858.046C292.471 862.324 292.597 866.539 293.1 870.795C292.442 879.959 291.792 891.942 288.084 900.339C284.566 908.307 277.332 915.364 271.884 922.053C267.061 927.975 262.454 934.112 257.907 940.248C249.221 951.971 241.512 964.472 233.877 976.898C230.196 982.89 226.69 989.45 222.528 995.092C202.383 986.692 180.124 967.35 170.055 947.612C169.691 946.898 169.872 947.198 169.383 946.545C168.028 943.557 167.502 939.272 166.524 936.025Z"/>
	<path fill="#797D62" d="M732.314 855.673C743.349 865.244 755.354 872.897 767.366 881.138C788.78 895.83 810.135 910.135 832.35 923.621C840.755 928.724 849.562 933.09 857.972 938.153C857.301 941.764 856.854 946.562 855.263 949.85L854.949 949.468C852.824 951.129 840.818 973.816 837.653 978.644C831.925 987.38 822.399 1003.49 813.647 1008.85C811.585 1010.11 809.169 1010.51 806.836 1011C804.13 1009.64 801.552 1008.26 799.124 1006.44C765.455 981.209 737.906 897.119 731.835 856.606L732.314 855.673Z"/>
	<path fill="#774236" d="M434.486 905.69C452.324 918.228 475.414 927.599 496.777 931.301C528.984 936.883 561.855 923.351 587.736 905.069C587.521 916.973 579.446 930.416 571.664 938.957C568.936 941.951 564.965 945.242 562.884 948.639C559.26 950.909 555.282 952.596 551.591 954.779C559.443 952.552 567.06 949.621 574.882 947.314Q583.872 944.49 592.925 941.879C582.668 954.253 578.205 967.109 571.714 981.503C565.321 995.679 558.998 1009.98 552.273 1024L489.962 1024C486.791 1019.35 484.21 1013.94 481.481 1009.01Q471.705 991.102 462.132 973.085C460.851 970.717 453.184 958.615 452.911 957.257C452.835 956.882 453.036 956.503 453.099 956.127C455.733 957.177 458.379 958.389 461.129 959.088L460.225 959.582C461.766 961.428 477.764 963.908 480.804 964.185Q484.969 964.57 489.15 964.674Q493.331 964.778 497.509 964.6Q501.688 964.422 505.845 963.964Q510.002 963.505 514.119 962.768C517.599 961.91 527.882 960.246 530.024 957.651L528.629 957.545C522.996 958.018 516.431 955.615 511.106 953.882C488.76 946.608 469.646 936.813 451.004 922.542C447.571 919.915 434.089 910.14 433.605 906.511L434.486 905.69Z"/>
	<defs>
		<linearGradient id="gradient_11" gradientUnits="userSpaceOnUse" x1="602.17023" y1="866.92981" x2="530.00293" y2="805.9931">
			<stop offset="0" stop-color="#F3C68F"/>
			<stop offset="1" stop-color="#FEE5B2"/>
		</linearGradient>
	</defs>
	<path fill="url(#gradient_11)" d="M507.207 910.179C501.67 901.166 495.803 892.19 491.501 882.506C487.607 873.74 484.959 863.849 488.873 854.555C489.984 851.915 492.082 849.943 494.459 848.429C499.222 845.397 505.162 844.095 510.263 841.652C519.501 837.226 548.15 820.949 555.363 814.151C559.377 810.367 562.852 805.165 566.408 800.88Q582.832 781.114 598.283 760.579C599.877 758.434 607.292 746.583 608.616 746.065C607.056 762.698 606.822 778.985 606.353 795.646C606.001 808.158 605.335 820.758 605.581 833.277C604.222 838.359 604.486 844.207 604.119 849.482Q603.369 859.848 601.763 870.116C574.398 892.259 543.418 909.842 507.207 910.179Z"/>
	<path fill="#797D62" d="M622.23 736.838C627.665 738.028 638.955 743.059 642.707 747.053C645.441 748.75 648.018 750.417 650.455 752.528C659.689 760.348 669.258 768.117 676.306 778.078C679.887 783.139 682.205 789.358 686.494 793.846C697.942 805.826 721.402 817.711 728.846 831.836C724.798 846.644 717.318 860.596 710.647 874.37C708.604 880.672 705.105 886.783 702.154 892.715C694.382 908.34 686.385 924.811 676.37 939.12C670.051 943.841 662.824 955.798 657.583 962.417C653.757 967.25 649.477 971.692 645.212 976.133C647.095 967.462 649.109 958.602 651.755 950.137C654.388 941.714 657.779 933.505 660.574 925.128C665.206 911.244 669.438 896.862 673.316 882.745C674.546 878.267 673.513 874.03 674.113 869.565C675.081 862.354 677.097 855.021 678.481 847.852C673.982 859.427 668.095 870.41 663.447 881.943C658.546 894.104 654.934 907.1 649.249 918.899C646.416 924.78 642.426 930.157 639.413 935.992C633.874 946.717 629.054 957.737 623.731 968.564C620.106 975.939 615.989 983.044 612.307 990.383C610.452 994.082 608.457 1002.34 606.021 1004.89C606.105 1000.32 608.256 994.781 609.315 990.285C611.155 982.471 612.707 974.672 614.791 966.898C620.21 946.69 626.471 926.812 632.921 906.916C646.148 866.118 660.485 826.668 656.208 783.023C655.59 776.721 655.163 770.287 653.485 764.162L653.302 763.518C652.057 759.849 648.999 756.662 646.121 754.174C641.153 750.163 624.776 740.816 622.23 736.838Z"/>
	<path fill="#B8B6AC" d="M650.455 752.528C659.689 760.348 669.258 768.117 676.306 778.078C679.887 783.139 682.205 789.358 686.494 793.846C697.942 805.826 721.402 817.711 728.846 831.836C724.798 846.644 717.318 860.596 710.647 874.37C709.886 874.819 709.421 875.22 708.96 875.984C706.616 879.866 704.659 884.017 702.388 887.95C699.304 893.294 695.82 898.442 692.42 903.588Q694.737 896.398 696.896 889.159C701.934 884.982 715.851 855.247 718.45 848.193C720.624 842.29 722.091 836.243 723.58 830.143C711.277 820.919 691.491 807.276 681.831 796.086C674.256 787.311 667.519 771.574 658.814 764.722C655.955 761.306 650.189 757.202 649.097 752.894L650.455 752.528Z"/>
	<path fill="#4A5055" d="M653.302 763.518C655.915 764.772 657.492 767.285 659.353 769.44C661.99 773.641 664.38 778.248 665.252 783.182C667.815 797.692 661.289 824.353 657.942 838.943C655.071 851.457 651.285 863.77 647.966 876.171Q640.947 902.763 635.6 929.741C640.208 919.374 645.69 909.417 650.245 899.031C663.829 868.059 674.77 834.11 679.088 800.519C687.296 834.966 685.58 853.208 677.338 887.1C675.136 896.154 673.177 905.295 670.692 914.273C668.334 922.792 665.632 931.199 663.624 939.813C670.475 925.508 677.683 911.254 683.686 896.572C687.745 886.644 691.002 876.393 694.333 866.203C698.857 852.368 702.915 838.681 704.586 824.167C705.46 835.994 705.576 847.855 703.546 859.582C701.824 869.533 698.942 879.272 696.896 889.159Q694.737 896.398 692.42 903.588C695.82 898.442 699.304 893.294 702.388 887.95C704.659 884.017 706.616 879.866 708.96 875.984C709.421 875.22 709.886 874.819 710.647 874.37C708.604 880.672 705.105 886.783 702.154 892.715C694.382 908.34 686.385 924.811 676.37 939.12C670.051 943.841 662.824 955.798 657.583 962.417C653.757 967.25 649.477 971.692 645.212 976.133C647.095 967.462 649.109 958.602 651.755 950.137C654.388 941.714 657.779 933.505 660.574 925.128C665.206 911.244 669.438 896.862 673.316 882.745C674.546 878.267 673.513 874.03 674.113 869.565C675.081 862.354 677.097 855.021 678.481 847.852C673.982 859.427 668.095 870.41 663.447 881.943C658.546 894.104 654.934 907.1 649.249 918.899C646.416 924.78 642.426 930.157 639.413 935.992C633.874 946.717 629.054 957.737 623.731 968.564C620.106 975.939 615.989 983.044 612.307 990.383C610.452 994.082 608.457 1002.34 606.021 1004.89C606.105 1000.32 608.256 994.781 609.315 990.285C611.155 982.471 612.707 974.672 614.791 966.898C620.21 946.69 626.471 926.812 632.921 906.916C646.148 866.118 660.485 826.668 656.208 783.023C655.59 776.721 655.163 770.287 653.485 764.162L653.302 763.518Z"/>
	<path fill="#797D62" d="M603.344 740.535C605.355 738.944 607.345 737.342 609.466 735.897C609.285 739.138 609.433 742.948 608.616 746.065C607.292 746.583 599.877 758.434 598.283 760.579Q582.832 781.114 566.408 800.88C562.852 805.165 559.377 810.367 555.363 814.151C548.15 820.949 519.501 837.226 510.263 841.652C505.162 844.095 499.222 845.397 494.459 848.429C492.082 849.943 489.984 851.915 488.873 854.555C484.959 863.849 487.607 873.74 491.501 882.506C495.803 892.19 501.67 901.166 507.207 910.179C476.753 909.212 448.119 892.999 424.774 874.352C419.083 869.806 413.969 864.565 408.238 860.068C414.91 869.005 426.278 877.973 435.477 884.075C440.18 887.195 445.347 889.94 449.857 893.298C449.603 893.293 449.348 893.301 449.095 893.284C448.465 893.24 447.744 893.058 447.131 892.949L447.866 892.959L446.907 892.783C455.021 901.311 464.568 908.278 471.033 918.395C451.163 911.457 426.611 894.655 411.249 880.308C405.931 875.342 401.15 869.695 396.235 864.33C394.682 858.927 394.383 852.99 393.841 847.405C393.81 847.28 393.77 847.157 393.747 847.031C392.048 837.758 390.47 827.907 395.869 819.675C401.438 811.073 408.192 804.041 414.205 795.876Q415.84 818.815 417.778 841.73C419.024 836.323 418.555 829.825 418.766 824.224C419.506 804.612 419.669 785.412 418.545 765.798L419.52 765.502C419.18 760.509 419.072 755.493 418.767 750.495L419.178 750.901C425.325 757.075 430.281 764.228 436.682 770.249C452.581 785.206 480.36 799.815 502.392 799.979C522.275 800.127 542.631 787.94 557.787 776.105C560.943 773.64 564.442 771.088 567.171 768.168C567.736 767.564 568.065 766.99 568.547 766.322C568.844 765.91 569.178 765.526 569.498 765.132C580.998 757.15 592.035 748.761 603.344 740.535Z"/>
	<path fill="#797D62" d="M318.414 466.443C335.458 463.468 350.824 453.535 364.899 443.881C369.429 448.213 374.468 451.86 379.542 455.513Q383.142 457.624 386.817 459.602C371.096 463.737 359.306 468.843 350.756 483.472C350.02 484.73 349.363 486.035 348.717 487.34C372.034 477.16 399.181 476.194 424.149 479.737C434.824 481.251 445.365 483.645 456.031 485.178C460.425 485.81 466.096 486.995 468.1 481.789C469.532 478.07 469.082 473.195 467.728 469.523C472.015 471.255 475.811 473.445 479.879 475.595C481.627 480.819 482.532 486.442 483.901 491.8C490.112 516.124 492.897 532.347 490.502 557.495C480.755 531.964 465.77 504.73 439.732 492.924C424.48 486.008 402.086 483.698 386.24 489.847C380.359 492.13 374.106 496.198 371.54 502.178C370.445 504.73 370.169 507.859 371.391 510.426C372.168 512.058 373.593 513.31 374.934 514.472L383.462 516.328C377.152 521.597 372.49 527.008 369.271 534.636C371.184 533.14 373.07 531.572 375.061 530.184C375.846 537.677 377.459 543.554 381.868 549.792C380.211 550.885 377.144 553.677 375.316 553.985C368.361 563.177 368.061 575.528 369.572 586.496C378.224 649.297 428.687 720.38 478.628 757.913C483.733 761.75 489.958 766.614 495.981 768.83C498.1 769.774 501.321 770.69 502.576 772.672C495.263 772.503 478.203 768.149 471.782 764.214C471.301 763.305 454.217 754.996 452.022 753.64C442.685 747.871 434.011 740.8 425.64 733.734C418.368 727.596 411.131 721.387 404.501 714.549C377.915 687.132 357.862 652.826 342.76 617.971C337.61 606.085 332.103 594.08 329.156 581.417C328.247 577.715 327.825 571.177 325.411 568.219C323.522 564.064 323.384 556.973 322.774 552.343C321.722 549.743 321.59 545.729 321.148 542.859C317.226 517.399 317.769 492.122 318.414 466.443Z"/>
	<path fill="#EFCB95" d="M475.307 457.78C488.943 456.181 502.694 455.171 516.162 452.381C528.283 449.87 540.089 446.098 552.148 443.346C569.154 439.465 586.532 436.516 603.666 433.238C610.477 431.935 624.598 428.464 631.184 429.122C639.462 429.949 644.996 442.999 652.333 445.92C655.334 447.115 658.773 442.982 661.93 443.808C663.217 444.144 664.259 445.214 664.757 446.366C663.979 446.49 663.288 446.635 662.538 446.884C661.024 447.388 659.471 447.758 657.926 448.153L658.272 448.356C661.05 448.357 664.482 447.011 667.178 446.252C676.857 450.449 682.964 458.712 686.745 468.313C690.994 479.101 693.728 491.811 693.566 503.442L694.945 512.621C694.966 516.46 695.072 520.304 694.576 524.119C694.495 534.577 692.963 556.102 690.678 565.89C688.725 583.673 684.515 601.577 680.334 618.955C677.586 630.378 675.25 641.952 671.59 653.127C663.059 679.169 645.826 699.068 624.777 715.956C604.76 732.016 565.435 763.818 542.201 770.881C530.853 774.33 518.496 774.684 506.774 773.386Q504.652 773.162 502.576 772.672C501.321 770.69 498.1 769.774 495.981 768.83C489.958 766.614 483.733 761.75 478.628 757.913C428.687 720.38 378.224 649.297 369.572 586.496C368.061 575.528 368.361 563.177 375.316 553.985C377.144 553.677 380.211 550.885 381.868 549.792C377.459 543.554 375.846 537.677 375.061 530.184C373.07 531.572 371.184 533.14 369.271 534.636C372.49 527.008 377.152 521.597 383.462 516.328L374.934 514.472C373.593 513.31 372.168 512.058 371.391 510.426C370.169 507.859 370.445 504.73 371.54 502.178C374.106 496.198 380.359 492.13 386.24 489.847C402.086 483.698 424.48 486.008 439.732 492.924C465.77 504.73 480.755 531.964 490.502 557.495C492.897 532.347 490.112 516.124 483.901 491.8C482.532 486.442 481.627 480.819 479.879 475.595Q477.225 466.782 475.307 457.78Z"/>
	<path fill="#C99B67" d="M693.566 503.442L694.945 512.621C694.966 516.46 695.072 520.304 694.576 524.119L694.327 521.1C693.822 520.635 693.373 520.19 692.938 519.656C691.302 517.652 693.241 506.515 693.566 503.442Z"/>
	<path fill="#202020" d="M481.315 646.296C479.22 645.522 477.118 644.712 475.232 643.495C470.343 640.339 466.653 635.155 465.528 629.426C464.149 622.408 466.215 615.933 469.999 610.082Q469.198 612.311 468.453 614.56C466.114 621.726 466.745 627.881 470.096 634.544C471.113 636.183 472.113 637.787 473.46 639.18C475.196 640.975 480.602 644.438 481.315 646.296Z"/>
	<path fill="#202020" d="M491.844 704.044Q500.405 704.831 509 705.025C514.488 705.105 536.096 703.233 539.539 705.42L539.213 705.793C528.806 705.566 519.924 707.772 510.397 707.722C506.34 707.701 502.234 706.893 498.236 706.252C496.052 705.607 493.916 705.005 491.844 704.044Z"/>
	<path fill="#202020" d="M626.574 562.196L627.284 562.369C617.769 569.409 604.636 570.739 593.232 569.055C589.74 568.539 585.406 567.523 582.621 565.313C598.89 568.254 610.9 566.528 626.574 562.196Z"/>
	<path fill="#C99B67" d="M381.868 549.792C387.134 556.906 391.806 561.861 399.592 566.175C399.102 566.302 399.139 566.307 398.539 566.374C390.884 567.226 380.871 558.358 375.316 553.985C377.144 553.677 380.211 550.885 381.868 549.792Z"/>
	<path fill="#F2E6AE" d="M466.153 536.844C466.929 537.399 467.724 537.959 468.428 538.604C470.522 540.524 471.49 543.707 471.483 546.48C471.461 554.982 464.672 562.143 458.945 567.657C458.285 568.271 457.655 568.734 456.917 569.244C456.673 568.896 456.557 568.786 456.448 568.317C454.869 561.516 460.889 551.456 463.116 545.201C464.115 542.394 464.382 539.289 466.153 536.844Z"/>
	<path fill="#202020" d="M543.339 686.592C552.584 686.079 564.629 684.688 571.917 678.387C574.996 680.744 577.906 683.136 580.589 685.939L572.826 682.569C566.812 683.767 561.116 685.889 554.978 686.78C546.419 688.022 537.813 688.025 529.192 688.414C522.963 688.696 516.726 689.59 510.5 689.691C505.319 689.776 500.052 689.17 494.877 688.88C479.279 688.005 465.594 687.227 450.479 682.543Q446.45 685.419 442.458 688.347C445.328 684.478 448.059 681.352 451.955 678.482C457.863 684.231 468.109 685.408 475.906 686.499C481.681 687.055 487.449 686.966 493.241 687.151C499.062 687.338 504.92 687.851 510.745 687.704C516.325 687.563 521.889 686.927 527.469 686.763C532.729 686.608 538.111 687.086 543.339 686.592Z"/>
	<path fill="#F9F9F9" d="M509.363 599.714C515.815 598.979 523.278 600.234 529.222 602.799C531.368 603.725 532.916 604.558 533.819 606.775L533.289 607.956C529.148 611.089 520.281 612.243 515.121 612.745C507.345 614.304 496.381 611.16 489.377 607.858C495.129 602.682 501.71 600.268 509.363 599.714Z"/>
	<path fill="#C48451" d="M498.236 706.252C502.234 706.893 506.34 707.701 510.397 707.722C519.924 707.772 528.806 705.566 539.213 705.793Q538.06 707.389 536.738 708.849Q535.416 710.308 533.941 711.613Q532.465 712.917 530.855 714.051Q529.245 715.185 527.52 716.134C520.393 720.103 509.937 721.723 502.081 719.184C499.825 718.454 497.98 717.13 496.993 714.926C495.603 711.826 497.111 709.158 498.236 706.252Z"/>
	<path fill="#C48451" d="M475.906 686.499C480.432 681.72 496.167 679.088 502.689 678.898C505.676 678.811 508.116 680.001 510.955 680.093C514.425 680.206 517.995 678.47 521.515 678.399C529.154 678.246 537.803 682.417 545.174 684.333L545.197 684.882L543.339 686.592C538.111 687.086 532.729 686.608 527.469 686.763C521.889 686.927 516.325 687.563 510.745 687.704C504.92 687.851 499.062 687.338 493.241 687.151C487.449 686.966 481.681 687.055 475.906 686.499Z"/>
	<path fill="#F2E6AE" d="M495.981 768.83C497.923 767.845 520.281 768.444 524.376 768.054C531.084 767.415 536.978 765.967 543.114 763.185C561.599 754.801 578.87 741.276 595.157 729.284C628.293 704.887 647.605 685.387 663.013 646.248C666.633 637.054 670.047 627.83 672.631 618.283C675.123 609.074 677.04 599.553 679.773 590.431C680.541 587.867 681.612 585.412 682.366 582.816C683.851 577.699 685.123 572.431 686.983 567.443C687.008 567.566 687.055 567.686 687.057 567.811C687.128 572.75 681.298 588.254 679.619 593.972C678.344 598.315 677.29 602.856 676.126 607.253C668.164 637.317 658.162 668.898 637.443 692.839C626.448 705.543 613.092 716.391 599.955 726.781C591.094 733.79 578.811 740.71 570.947 747.688L570.912 748.484L571.105 747.459L571.262 748.889C571.437 749.024 571.616 749.153 571.786 749.293C574.234 751.309 572.518 751.189 572.831 753.626C577.615 751.48 582.31 747.161 586.539 744.01Q599.641 734.325 612.557 724.392C636.252 706.021 658.877 686.33 669.354 657.198C675.436 640.289 678.727 621.951 682.698 604.435C684.049 598.478 685.085 592.442 686.54 586.51C687.379 583.09 689.033 568.244 690.182 566.562C690.339 566.332 690.512 566.114 690.678 565.89C688.725 583.673 684.515 601.577 680.334 618.955C677.586 630.378 675.25 641.952 671.59 653.127C663.059 679.169 645.826 699.068 624.777 715.956C604.76 732.016 565.435 763.818 542.201 770.881C530.853 774.33 518.496 774.684 506.774 773.386Q504.652 773.162 502.576 772.672C501.321 770.69 498.1 769.774 495.981 768.83Z"/>
	<path fill="#C48451" d="M554.283 629.826C554.884 627.559 555.351 625.364 555.777 623.057C555.94 622.173 555.854 622.492 556.436 621.674C558.063 624.338 556.36 630.225 555.633 633.136C554.397 638.083 550.192 641.717 545.934 644.148C530.877 652.743 505.548 653.842 489.093 649.12C486.659 648.422 483.405 647.732 481.315 646.296C480.602 644.438 475.196 640.975 473.46 639.18C472.113 637.787 471.113 636.183 470.096 634.544C473.638 633.924 476.977 633.135 480.405 632.048C485.983 629.202 490.399 628.58 496.574 629.502L497.117 629.656C500.919 630.776 504.461 632.95 508.315 633.754C517.394 635.648 526.623 629.48 535.725 628.773C539.104 630.143 541.309 631.944 543.871 634.488C548.407 633.67 550.831 633.046 554.283 629.826Z"/>
	<path fill="#202020" d="M523.476 639.057L523.829 637.359C525.069 636.006 526.254 635.034 527.932 634.251C531.014 632.813 535.309 632.457 538.523 633.658C540.591 634.431 541.464 635.625 542.387 637.565C540.096 638.1 538.25 636.114 535.837 636.302C532.213 636.584 526.624 639.736 523.476 639.057Z"/>
	<path fill="#9B5633" d="M523.476 639.057C526.624 639.736 532.213 636.584 535.837 636.302C538.25 636.114 540.096 638.1 542.387 637.565C542.158 638.821 541.343 639.585 540.318 640.274C536.906 642.564 530.738 644.508 526.641 643.341C525.66 643.062 524.57 642.454 524.072 641.522C523.677 640.782 523.565 639.876 523.476 639.057Z"/>
	<path fill="#9B5633" d="M479.555 636.944C487.68 636.866 495.695 638.761 503.7 638.565C502.758 640.247 501.966 641.782 500.532 643.095C497.573 644.085 494.548 643.741 491.537 643.168C486.984 642.303 482.288 640.918 479.555 636.944Z"/>
	<path fill="#202020" d="M480.405 632.048C485.983 629.202 490.399 628.58 496.574 629.502C495.194 629.88 494.333 629.848 493.445 631.003C494.123 632.329 495.088 633.1 496.191 634.054C499.06 635.28 501.552 636.183 503.7 638.565C495.695 638.761 487.68 636.866 479.555 636.944L479.126 636.232C479.105 634.532 479.631 633.537 480.405 632.048Z"/>
	<path fill="#797D62" d="M480.405 632.048C485.983 629.202 490.399 628.58 496.574 629.502C495.194 629.88 494.333 629.848 493.445 631.003C494.123 632.329 495.088 633.1 496.191 634.054C489.141 632.51 485.502 632.341 479.126 636.232C479.105 634.532 479.631 633.537 480.405 632.048Z"/>
	<path fill="#C99B67" d="M533.527 555.026C533.677 531.177 534.456 512.567 541.576 489.366C543.05 484.562 544.733 478.409 548.318 474.74C548.323 477.73 547.849 481.891 550.092 484.234C551.723 485.937 554.117 485.84 556.276 485.68C564.441 485.074 572.89 482.821 580.992 481.408C600.511 478.004 635.486 473.563 653.121 482.592C649.979 484.366 643.841 484.341 640.101 484.812C619.277 487.437 589.7 488.495 571.865 499.61C552.226 511.848 538.788 532.75 533.527 555.026Z"/>
	<path fill="#202020" d="M548.318 474.74C549.206 472.125 550.091 467.677 552.634 466.239L553.006 466.43C552.7 467.541 552.366 468.628 552.251 469.779C567.88 456.184 599.426 454.168 619.607 455.542C633.949 456.519 648.633 461.08 658.357 472.205C663.484 478.071 666.961 485.177 670.502 492.054C665.139 488.245 659.555 484.337 653.121 482.592C635.486 473.563 600.511 478.004 580.992 481.408C572.89 482.821 564.441 485.074 556.276 485.68C554.117 485.84 551.723 485.937 550.092 484.234C547.849 481.891 548.323 477.73 548.318 474.74Z"/>
	<path fill="#202020" d="M561.764 542.663C561.617 541.446 561.476 540.223 561.43 538.997C561.153 531.723 563.704 525.209 568.639 519.889C577.185 510.675 589.981 505.412 602.437 504.928C617.486 504.342 631.491 509.775 642.388 520.067C643.97 521.561 648.59 525.414 648.662 527.615C647.688 527.679 647.045 527.752 646.104 528.059C646.511 529.758 648.278 531.307 649.416 532.6C646.843 531.041 644.723 529.054 642.507 527.039C643.152 528.854 643.947 530.836 644.048 532.773C644.25 536.665 642.837 539.181 640.215 541.93L639.583 541.105C639.717 546.961 635.982 551.379 632.155 555.414C630.458 557.203 626.803 559.726 626.574 562.196C610.9 566.528 598.89 568.254 582.621 565.313C581.424 564.368 579.984 564.028 578.565 563.497C572.693 561.303 569.732 559.791 566.914 553.857L566.145 552.261C563.685 550.184 562.745 545.638 561.764 542.663Z"/>
	<path fill="#F9F9F9" d="M595.2 537.902C596.079 539.341 596.926 540.719 596.469 542.49C596.174 543.634 595.578 544.509 594.881 545.441L592.795 545.658C590.558 544.669 589.792 543.506 588.381 541.537Q588.803 540.995 589.244 540.467C591.145 538.218 592.298 538.104 595.2 537.902Z"/>
	<path fill="#797D62" d="M586.294 547.675C585.378 546.088 584.227 544.155 584.37 542.249C584.496 540.573 585.657 539.246 586.893 538.223C588.463 536.924 589.538 537.054 591.418 537.26L591.214 537.766C590.199 538.23 588.954 538.639 588.265 539.553C587.813 540.153 588.229 540.866 588.381 541.537C589.792 543.506 590.558 544.669 592.795 545.658C590.425 547.365 589.13 547.591 586.294 547.675Z"/>
	<path fill="#F9F9F9" d="M622.294 529.214C620.832 529.675 619.345 530.117 617.835 530.392C614.609 530.977 610.527 530.273 607.837 528.347C605.955 526.999 604.587 524.896 604.245 522.595C603.914 520.373 604.637 518.183 606.051 516.464C607.714 514.441 610.254 513.301 612.852 513.198C619.413 512.939 626.923 518.454 631.538 522.737C636.688 527.516 639.326 534.138 639.583 541.105C639.717 546.961 635.982 551.379 632.155 555.414C630.458 557.203 626.803 559.726 626.574 562.196C610.9 566.528 598.89 568.254 582.621 565.313C581.424 564.368 579.984 564.028 578.565 563.497C572.693 561.303 569.732 559.791 566.914 553.857L566.145 552.261C564.837 547.427 563.345 542.512 563.848 537.444C564.587 530.015 569.174 525.682 574.507 521.117C573.199 526.013 571.928 530.934 572.246 536.048C572.713 543.534 576.471 550.793 582.136 555.682Q582.634 556.105 583.153 556.502Q583.671 556.9 584.208 557.272Q584.746 557.643 585.301 557.988Q585.855 558.333 586.427 558.65Q586.998 558.967 587.584 559.255Q588.17 559.544 588.77 559.803Q589.37 560.062 589.981 560.292Q590.593 560.521 591.215 560.72Q591.838 560.919 592.469 561.087Q593.1 561.255 593.739 561.392Q594.378 561.529 595.023 561.634Q595.667 561.74 596.317 561.813Q596.966 561.886 597.618 561.928Q598.27 561.969 598.923 561.978Q599.576 561.987 600.229 561.964Q600.882 561.941 601.533 561.886C607.816 561.314 613.522 558.676 617.577 553.755C623.606 546.437 623.155 538.02 622.294 529.214Z"/>
	<path fill="#202020" d="M383.462 516.328C395.824 507.397 410.884 502.887 426.142 505.43C440.403 507.808 453.109 516.597 461.336 528.336C462.851 530.498 464.19 532.758 465.507 535.044C464.16 533.815 462.734 532.131 460.907 531.738L460.082 531.943C459.964 542.077 458.562 551.855 450.939 559.299C445.278 564.827 440.347 563.541 434.325 566.844C423.551 571.713 410.41 569.504 399.592 566.175C391.806 561.861 387.134 556.906 381.868 549.792C377.459 543.554 375.846 537.677 375.061 530.184C373.07 531.572 371.184 533.14 369.271 534.636C372.49 527.008 377.152 521.597 383.462 516.328Z"/>
	<path fill="#797D62" d="M403.658 530.878C407.935 534.48 405.105 542.015 411.282 543.544L413.106 545.26C417.272 547.585 420.249 548.363 425.058 547.851L425.143 548.793C423.111 551.012 419.184 551.908 416.234 552.07C415.45 552.112 414.663 552.104 413.878 552.09C412.709 551.081 411.379 550.224 410.116 549.333C408.543 548.314 406.927 547.535 405.23 546.743C404.714 545.188 403.695 543.657 403.079 542.107C401.373 537.809 401.85 535.051 403.658 530.878Z"/>
	<path fill="#F9F9F9" d="M443.907 529.434C439.716 531.361 435.38 533.118 430.735 531.641C427.676 530.669 424.413 527.925 423.02 525.019C422.021 522.937 422.129 520.724 422.945 518.597C423.627 516.821 424.943 515.382 426.704 514.635C430.582 512.99 435.645 514.135 439.331 515.752C444.487 518.013 458.043 526.829 460.082 531.943C459.964 542.077 458.562 551.855 450.939 559.299C445.278 564.827 440.347 563.541 434.325 566.844C422.025 569.224 408.178 569.19 397.04 562.734C388.248 557.637 382.717 549.41 380.181 539.676C379.045 535.317 378.778 530.859 381.271 526.901C386.141 519.171 397.693 515.763 406.004 513.649C404.626 514.994 403.312 516.383 402.103 517.884C397.371 523.756 394.266 531.942 395.26 539.497Q395.336 540.081 395.441 540.661Q395.546 541.24 395.681 541.813Q395.815 542.387 395.979 542.953Q396.143 543.518 396.335 544.075Q396.527 544.632 396.748 545.178Q396.968 545.724 397.216 546.258Q397.465 546.792 397.74 547.313Q398.014 547.834 398.316 548.34Q398.617 548.846 398.943 549.336Q399.27 549.826 399.621 550.299Q399.972 550.772 400.347 551.226Q400.722 551.681 401.119 552.115Q401.517 552.55 401.936 552.964Q402.355 553.377 402.795 553.769Q403.235 554.161 403.694 554.53Q404.153 554.899 404.63 555.244Q405.162 555.621 405.712 555.972Q406.262 556.322 406.829 556.645Q407.396 556.968 407.978 557.262Q408.561 557.556 409.157 557.82Q409.753 558.085 410.362 558.319Q410.97 558.554 411.59 558.758Q412.21 558.962 412.839 559.135Q413.468 559.307 414.104 559.448Q414.741 559.59 415.384 559.699Q416.027 559.808 416.675 559.885Q417.323 559.962 417.974 560.007Q418.624 560.052 419.277 560.064Q419.929 560.076 420.581 560.056Q421.233 560.035 421.883 559.982Q422.533 559.93 423.18 559.844Q423.826 559.759 424.468 559.642C431.202 558.461 437.384 555.148 441.186 549.316C445.247 543.088 445.379 536.452 443.907 529.434Z"/>
</svg>
