<svg xmlns="http://www.w3.org/2000/svg" x="0px" y="0px" viewBox="0 0 499.712 499.712"><path d="M146.88 375.528c126.272 0 228.624-102.368 228.624-228.64 0-55.952-20.16-107.136-53.52-146.88C425.056 33.096 499.696 129.64 499.696 243.704c0 141.392-114.608 256-256 256-114.064 0-210.608-74.64-243.696-177.712 39.744 33.376 90.944 53.536 146.88 53.536z"/><path d="M401.92 42.776c34.24 43.504 54.816 98.272 54.816 157.952 0 141.392-114.608 256-256 256-59.68 0-114.448-20.576-157.952-54.816 46.848 59.472 119.344 97.792 200.928 97.792 141.392 0 256-114.608 256-256 0-81.584-38.32-154.064-97.792-200.928z" fill="#8d5fd3"/><g fill="#caf"><path d="M128.128 99.944l26.368 53.456 58.976 8.56-42.672 41.6 10.064 58.736-52.736-27.728-52.752 27.728L85.44 203.56l-42.672-41.6 58.976-8.56z"/><path d="M276.864 82.84l13.664 27.712 30.576 4.432-22.128 21.568 5.232 30.432-27.344-14.368-27.344 14.368 5.232-30.432-22.128-21.568 30.576-4.432z"/></g><path d="M157.74807 453.64686c-30.44476-5.14411-67.388553-19.29774-92.798498-35.55229-6.652913-4.25581-14.028358-6.24642-14.624336-6.94382-19.226032-22.49762-22.302282-29.14807-29.206697-40.9884C10.257848 351.53743.05871234 324.52923.05871234 321.95895c0-.43422 10.49248866 9.03807 20.38135466 14.68418 23.869614 13.62849 5.867805 7.70891 51.833074 25.61536 9.776854 3.80872 21.583341 7.65204 32.679969 9.26866 13.29764 1.93727 7.27108 2.64136 45.19682 3.17285 26.18392-1.14561 32.40604-1.52019 51.08358-5.65773 5.98984-1.3269 12.02221-3.2763 17.71163-5.1397 9.58289-3.13859 18.16051-6.97178 26.97918-11.27589 15.12495-7.38201 29.59371-15.86027 42.59377-26.15703 41.55085-32.91053 70.74543-79.88718 81.95916-134.05804 12.42276-60.01135-.3382-125.042794-35.22741-174.95228C329.91245 9.8241312 321.59001.401997 321.984.008c1.45441-1.4544039 40.38615 15.355223 56.09546 25.84562 22.0396 14.717653 36.21986 23.940509 47.73841 44.15354 27.04653 47.46188 33.56598 93.12545 30.74794 143.42915-6.21061 110.86234-79.34412 202.85591-185.77266 233.68077-34.63743 10.03202-77.62252 12.51495-113.04508 6.52978z" fill="#b380ff"/></svg>